<?xml version="1.0" encoding="us-ascii" standalone="no"?><svg xmlns="http://www.w3.org/2000/svg" xmlns:xlink="http://www.w3.org/1999/xlink" contentStyleType="text/css" height="667px" preserveAspectRatio="none" style="width:1418px;height:667px;background:#FFFFFF;" version="1.1" viewBox="0 0 1418 667" width="1418px" zoomAndPan="magnify"><defs/><g><rect fill="#DDDDDD" height="655.5625" style="stroke:#181818;stroke-width:0.5;" width="1190.5" x="222" y="6"/><text fill="#000000" font-family="sans-serif" font-size="13" font-weight="bold" lengthAdjust="spacing" textLength="80" x="777.25" y="17.7686">ReviewsPost</text><rect fill="#FFFFFF" height="448.2344" style="stroke:#181818;stroke-width:1.0;" width="10" x="281.5" y="116.6875"/><rect fill="#FFFFFF" height="291.1406" style="stroke:#181818;stroke-width:1.0;" width="10" x="571.5" y="145.2109"/><rect fill="#FFFFFF" height="58.5234" style="stroke:#181818;stroke-width:1.0;" width="10" x="866.5" y="173.7344"/><rect fill="#FFFFFF" height="58.5234" style="stroke:#181818;stroke-width:1.0;" width="10" x="866.5" y="319.3047"/><rect fill="#FFFFFF" height="30" style="stroke:#181818;stroke-width:1.0;" width="10" x="1007.5" y="202.2578"/><rect fill="#FFFFFF" height="30" style="stroke:#181818;stroke-width:1.0;" width="10" x="1007.5" y="347.8281"/><rect fill="#FFFFFF" height="30" style="stroke:#181818;stroke-width:1.0;" width="10" x="1117" y="506.3984"/><rect fill="#FFFFFF" height="30" style="stroke:#181818;stroke-width:1.0;" width="10" x="1235" y="260.7813"/><rect fill="#FFFFFF" height="30" style="stroke:#181818;stroke-width:1.0;" width="10" x="1350" y="406.3516"/><line style="stroke:#181818;stroke-width:0.5;stroke-dasharray:5.0,5.0;" x1="42" x2="42" y1="86.1641" y2="582.9219"/><line style="stroke:#181818;stroke-width:0.5;stroke-dasharray:5.0,5.0;" x1="286" x2="286" y1="86.1641" y2="582.9219"/><line style="stroke:#181818;stroke-width:0.5;stroke-dasharray:5.0,5.0;" x1="576.5" x2="576.5" y1="86.1641" y2="582.9219"/><line style="stroke:#181818;stroke-width:0.5;stroke-dasharray:5.0,5.0;" x1="871" x2="871" y1="86.1641" y2="582.9219"/><line style="stroke:#181818;stroke-width:0.5;stroke-dasharray:5.0,5.0;" x1="1012.5" x2="1012.5" y1="86.1641" y2="582.9219"/><line style="stroke:#181818;stroke-width:0.5;stroke-dasharray:5.0,5.0;" x1="1121.5" x2="1121.5" y1="86.1641" y2="582.9219"/><line style="stroke:#181818;stroke-width:0.5;stroke-dasharray:5.0,5.0;" x1="1239.5" x2="1239.5" y1="86.1641" y2="582.9219"/><line style="stroke:#181818;stroke-width:0.5;stroke-dasharray:5.0,5.0;" x1="1354.5" x2="1354.5" y1="86.1641" y2="582.9219"/><text fill="#000000" font-family="sans-serif" font-size="14" lengthAdjust="spacing" textLength="69" x="5" y="83.1973">Registered</text><ellipse cx="42.5" cy="19.0234" fill="#E2E2F0" rx="8" ry="8" style="stroke:#181818;stroke-width:0.5;"/><path d="M42.5,27.0234 L42.5,54.0234 M29.5,35.0234 L55.5,35.0234 M42.5,54.0234 L29.5,69.0234 M42.5,54.0234 L55.5,69.0234 " fill="none" style="stroke:#181818;stroke-width:0.5;"/><text fill="#000000" font-family="sans-serif" font-size="14" lengthAdjust="spacing" textLength="69" x="5" y="594.5957">Registered</text><ellipse cx="42.5" cy="606.0625" fill="#E2E2F0" rx="8" ry="8" style="stroke:#181818;stroke-width:0.5;"/><path d="M42.5,614.0625 L42.5,641.0625 M29.5,622.0625 L55.5,622.0625 M42.5,641.0625 L29.5,656.0625 M42.5,641.0625 L55.5,656.0625 " fill="none" style="stroke:#181818;stroke-width:0.5;"/><rect fill="#E2E2F0" height="29.6406" rx="2.5" ry="2.5" style="stroke:#181818;stroke-width:0.5;" width="121" x="226" y="55.5234"/><text fill="#000000" font-family="sans-serif" font-size="14" lengthAdjust="spacing" textLength="107" x="233" y="75.1973">ReviewController</text><rect fill="#E2E2F0" height="29.6406" rx="2.5" ry="2.5" style="stroke:#181818;stroke-width:0.5;" width="121" x="226" y="581.9219"/><text fill="#000000" font-family="sans-serif" font-size="14" lengthAdjust="spacing" textLength="107" x="233" y="601.5957">ReviewController</text><rect fill="#E2E2F0" height="29.6406" rx="2.5" ry="2.5" style="stroke:#181818;stroke-width:0.5;" width="106" x="523.5" y="55.5234"/><text fill="#000000" font-family="sans-serif" font-size="14" lengthAdjust="spacing" textLength="92" x="530.5" y="75.1973">ReviewService</text><rect fill="#E2E2F0" height="29.6406" rx="2.5" ry="2.5" style="stroke:#181818;stroke-width:0.5;" width="106" x="523.5" y="581.9219"/><text fill="#000000" font-family="sans-serif" font-size="14" lengthAdjust="spacing" textLength="92" x="530.5" y="601.5957">ReviewService</text><rect fill="#E2E2F0" height="29.6406" rx="2.5" ry="2.5" style="stroke:#181818;stroke-width:0.5;" width="93" x="825" y="55.5234"/><text fill="#000000" font-family="sans-serif" font-size="14" lengthAdjust="spacing" textLength="79" x="832" y="75.1973">ReviewRepo</text><rect fill="#E2E2F0" height="29.6406" rx="2.5" ry="2.5" style="stroke:#181818;stroke-width:0.5;" width="93" x="825" y="581.9219"/><text fill="#000000" font-family="sans-serif" font-size="14" lengthAdjust="spacing" textLength="79" x="832" y="601.5957">ReviewRepo</text><text fill="#000000" font-family="sans-serif" font-size="14" lengthAdjust="spacing" textLength="80" x="969.5" y="83.1973">ReviewsPost</text><path d="M994.5,34.5234 C994.5,24.5234 1012.5,24.5234 1012.5,24.5234 C1012.5,24.5234 1030.5,24.5234 1030.5,34.5234 L1030.5,60.5234 C1030.5,70.5234 1012.5,70.5234 1012.5,70.5234 C1012.5,70.5234 994.5,70.5234 994.5,60.5234 L994.5,34.5234 " fill="#E2E2F0" style="stroke:#181818;stroke-width:1.5;"/><path d="M994.5,34.5234 C994.5,44.5234 1012.5,44.5234 1012.5,44.5234 C1012.5,44.5234 1030.5,44.5234 1030.5,34.5234 " fill="none" style="stroke:#181818;stroke-width:1.5;"/><text fill="#000000" font-family="sans-serif" font-size="14" lengthAdjust="spacing" textLength="80" x="969.5" y="594.5957">ReviewsPost</text><path d="M994.5,607.5625 C994.5,597.5625 1012.5,597.5625 1012.5,597.5625 C1012.5,597.5625 1030.5,597.5625 1030.5,607.5625 L1030.5,633.5625 C1030.5,643.5625 1012.5,643.5625 1012.5,643.5625 C1012.5,643.5625 994.5,643.5625 994.5,633.5625 L994.5,607.5625 " fill="#E2E2F0" style="stroke:#181818;stroke-width:1.5;"/><path d="M994.5,607.5625 C994.5,617.5625 1012.5,617.5625 1012.5,617.5625 C1012.5,617.5625 1030.5,617.5625 1030.5,607.5625 " fill="none" style="stroke:#181818;stroke-width:1.5;"/><rect fill="#E2E2F0" height="29.6406" rx="2.5" ry="2.5" style="stroke:#181818;stroke-width:0.5;" width="113" x="1065.5" y="55.5234"/><text fill="#000000" font-family="sans-serif" font-size="14" lengthAdjust="spacing" textLength="99" x="1072.5" y="75.1973">MessageBroker</text><rect fill="#E2E2F0" height="29.6406" rx="2.5" ry="2.5" style="stroke:#181818;stroke-width:0.5;" width="113" x="1065.5" y="581.9219"/><text fill="#000000" font-family="sans-serif" font-size="14" lengthAdjust="spacing" textLength="99" x="1072.5" y="601.5957">MessageBroker</text><rect fill="#E2E2F0" height="29.6406" rx="2.5" ry="2.5" style="stroke:#181818;stroke-width:0.5;" width="103" x="1188.5" y="55.5234"/><text fill="#000000" font-family="sans-serif" font-size="14" lengthAdjust="spacing" textLength="89" x="1195.5" y="75.1973">review:Review</text><rect fill="#E2E2F0" height="29.6406" rx="2.5" ry="2.5" style="stroke:#181818;stroke-width:0.5;" width="103" x="1188.5" y="581.9219"/><text fill="#000000" font-family="sans-serif" font-size="14" lengthAdjust="spacing" textLength="89" x="1195.5" y="601.5957">review:Review</text><rect fill="#E2E2F0" height="29.6406" rx="2.5" ry="2.5" style="stroke:#181818;stroke-width:0.5;" width="107" x="1301.5" y="55.5234"/><text fill="#000000" font-family="sans-serif" font-size="14" lengthAdjust="spacing" textLength="93" x="1308.5" y="75.1973">ReviewMapper</text><rect fill="#E2E2F0" height="29.6406" rx="2.5" ry="2.5" style="stroke:#181818;stroke-width:0.5;" width="107" x="1301.5" y="581.9219"/><text fill="#000000" font-family="sans-serif" font-size="14" lengthAdjust="spacing" textLength="93" x="1308.5" y="601.5957">ReviewMapper</text><rect fill="#FFFFFF" height="448.2344" style="stroke:#181818;stroke-width:1.0;" width="10" x="281.5" y="116.6875"/><rect fill="#FFFFFF" height="291.1406" style="stroke:#181818;stroke-width:1.0;" width="10" x="571.5" y="145.2109"/><rect fill="#FFFFFF" height="58.5234" style="stroke:#181818;stroke-width:1.0;" width="10" x="866.5" y="173.7344"/><rect fill="#FFFFFF" height="58.5234" style="stroke:#181818;stroke-width:1.0;" width="10" x="866.5" y="319.3047"/><rect fill="#FFFFFF" height="30" style="stroke:#181818;stroke-width:1.0;" width="10" x="1007.5" y="202.2578"/><rect fill="#FFFFFF" height="30" style="stroke:#181818;stroke-width:1.0;" width="10" x="1007.5" y="347.8281"/><rect fill="#FFFFFF" height="30" style="stroke:#181818;stroke-width:1.0;" width="10" x="1117" y="506.3984"/><rect fill="#FFFFFF" height="30" style="stroke:#181818;stroke-width:1.0;" width="10" x="1235" y="260.7813"/><rect fill="#FFFFFF" height="30" style="stroke:#181818;stroke-width:1.0;" width="10" x="1350" y="406.3516"/><polygon fill="#181818" points="269.5,112.6875,279.5,116.6875,269.5,120.6875,273.5,116.6875" style="stroke:#181818;stroke-width:1.0;"/><line style="stroke:#181818;stroke-width:1.0;" x1="42.5" x2="275.5" y1="116.6875" y2="116.6875"/><text fill="#000000" font-family="sans-serif" font-size="13" font-weight="bold" lengthAdjust="spacing" textLength="7" x="49.5" y="111.9326">1</text><text fill="#000000" font-family="sans-serif" font-size="13" lengthAdjust="spacing" textLength="209" x="60.5" y="111.9326">PUT /reviews/acceptreject/{reviewID}</text><polygon fill="#181818" points="559.5,141.2109,569.5,145.2109,559.5,149.2109,563.5,145.2109" style="stroke:#181818;stroke-width:1.0;"/><line style="stroke:#181818;stroke-width:1.0;" x1="291.5" x2="565.5" y1="145.2109" y2="145.2109"/><text fill="#000000" font-family="sans-serif" font-size="13" font-weight="bold" lengthAdjust="spacing" textLength="7" x="298.5" y="140.4561">2</text><text fill="#000000" font-family="sans-serif" font-size="13" lengthAdjust="spacing" textLength="250" x="309.5" y="140.4561">putAcceptRejectReview(reviewID, approved)</text><polygon fill="#181818" points="854.5,169.7344,864.5,173.7344,854.5,177.7344,858.5,173.7344" style="stroke:#181818;stroke-width:1.0;"/><line style="stroke:#181818;stroke-width:1.0;" x1="581.5" x2="860.5" y1="173.7344" y2="173.7344"/><text fill="#000000" font-family="sans-serif" font-size="13" font-weight="bold" lengthAdjust="spacing" textLength="7" x="588.5" y="168.9795">3</text><text fill="#000000" font-family="sans-serif" font-size="13" lengthAdjust="spacing" textLength="255" x="599.5" y="168.9795">review= moderateReview(reviewID, approved)</text><polygon fill="#181818" points="995.5,198.2578,1005.5,202.2578,995.5,206.2578,999.5,202.2578" style="stroke:#181818;stroke-width:1.0;"/><line style="stroke:#181818;stroke-width:1.0;" x1="876.5" x2="1001.5" y1="202.2578" y2="202.2578"/><text fill="#000000" font-family="sans-serif" font-size="13" font-weight="bold" lengthAdjust="spacing" textLength="7" x="883.5" y="197.5029">4</text><text fill="#000000" font-family="sans-serif" font-size="13" lengthAdjust="spacing" textLength="101" x="894.5" y="197.5029">findById(reviewID)</text><polygon fill="#181818" points="1223,256.7813,1233,260.7813,1223,264.7813,1227,260.7813" style="stroke:#181818;stroke-width:1.0;"/><line style="stroke:#181818;stroke-width:1.0;" x1="581.5" x2="1229" y1="260.7813" y2="260.7813"/><text fill="#000000" font-family="sans-serif" font-size="13" font-weight="bold" lengthAdjust="spacing" textLength="7" x="588.5" y="256.0264">5</text><text fill="#000000" font-family="sans-serif" font-size="13" lengthAdjust="spacing" textLength="164" x="599.5" y="256.0264">setApprovalStatus(approved)</text><polygon fill="#181818" points="854.5,315.3047,864.5,319.3047,854.5,323.3047,858.5,319.3047" style="stroke:#181818;stroke-width:1.0;"/><line style="stroke:#181818;stroke-width:1.0;" x1="581.5" x2="860.5" y1="319.3047" y2="319.3047"/><text fill="#000000" font-family="sans-serif" font-size="13" font-weight="bold" lengthAdjust="spacing" textLength="7" x="588.5" y="314.5498">6</text><text fill="#000000" font-family="sans-serif" font-size="13" lengthAdjust="spacing" textLength="78" x="599.5" y="314.5498">delete(review)</text><polygon fill="#181818" points="995.5,343.8281,1005.5,347.8281,995.5,351.8281,999.5,347.8281" style="stroke:#181818;stroke-width:1.0;"/><line style="stroke:#181818;stroke-width:1.0;" x1="876.5" x2="1001.5" y1="347.8281" y2="347.8281"/><text fill="#000000" font-family="sans-serif" font-size="13" font-weight="bold" lengthAdjust="spacing" textLength="7" x="883.5" y="343.0732">7</text><text fill="#000000" font-family="sans-serif" font-size="13" lengthAdjust="spacing" textLength="69" x="894.5" y="343.0732">save(review)</text><polygon fill="#181818" points="1338,402.3516,1348,406.3516,1338,410.3516,1342,406.3516" style="stroke:#181818;stroke-width:1.0;"/><line style="stroke:#181818;stroke-width:1.0;" x1="581.5" x2="1344" y1="406.3516" y2="406.3516"/><text fill="#000000" font-family="sans-serif" font-size="13" font-weight="bold" lengthAdjust="spacing" textLength="7" x="588.5" y="401.5967">8</text><text fill="#000000" font-family="sans-serif" font-size="13" lengthAdjust="spacing" textLength="64" x="599.5" y="401.5967">toDtoList(r)</text><line style="stroke:#181818;stroke-width:1.0;" x1="291.5" x2="333.5" y1="464.875" y2="464.875"/><line style="stroke:#181818;stroke-width:1.0;" x1="333.5" x2="333.5" y1="464.875" y2="477.875"/><line style="stroke:#181818;stroke-width:1.0;" x1="292.5" x2="333.5" y1="477.875" y2="477.875"/><polygon fill="#181818" points="302.5,473.875,292.5,477.875,302.5,481.875,298.5,477.875" style="stroke:#181818;stroke-width:1.0;"/><text fill="#000000" font-family="sans-serif" font-size="13" font-weight="bold" lengthAdjust="spacing" textLength="7" x="298.5" y="460.1201">9</text><text fill="#000000" font-family="sans-serif" font-size="13" lengthAdjust="spacing" textLength="189" x="309.5" y="460.1201">event = new event(update,review)</text><polygon fill="#181818" points="1105,502.3984,1115,506.3984,1105,510.3984,1109,506.3984" style="stroke:#181818;stroke-width:1.0;"/><line style="stroke:#181818;stroke-width:1.0;" x1="291.5" x2="1111" y1="506.3984" y2="506.3984"/><text fill="#000000" font-family="sans-serif" font-size="13" font-weight="bold" lengthAdjust="spacing" textLength="14" x="298.5" y="501.6436">10</text><text fill="#000000" font-family="sans-serif" font-size="13" lengthAdjust="spacing" textLength="119" x="316.5" y="501.6436">sendMessage(event)</text><polygon fill="#181818" points="53.5,560.9219,43.5,564.9219,53.5,568.9219,49.5,564.9219" style="stroke:#181818;stroke-width:1.0;"/><line style="stroke:#181818;stroke-width:1.0;stroke-dasharray:2.0,2.0;" x1="47.5" x2="285.5" y1="564.9219" y2="564.9219"/><text fill="#000000" font-family="sans-serif" font-size="13" font-weight="bold" lengthAdjust="spacing" textLength="14" x="59.5" y="560.167">11</text><text fill="#000000" font-family="sans-serif" font-size="13" lengthAdjust="spacing" textLength="173" x="77.5" y="560.167">Confirma a aprova&#231;&#227;o/rejei&#231;&#227;o</text><!--SRC=[hLJDRjGm4BxxAKQva4ejkKSgKhTReKfTiSgstBtnT34aiR4dAGZnD1nuaBuO_jbD4vgqYyJaOddc- -RF-Tvy8j8spp9TyORQkdfRgZgp-BN5fiGp8VdEy9entf9gsdgBXl6Ib842Tz8I6XJ0BTnjhefvnrPzWwJ0JkA3NIjB2TFSa2obTZaFdalLa55LXIRnmClRucOgR8EcaoM66CVzSIgcGAr2G76r_i049xxb5iSbUFToCKQlq5g-muLHN_PLh3RlcMy1pjw5YY27zTqjP2OoPRmiKPF1prXIzYFUNYz_-b78ZXF6Di2PFpWINx8ZqIrT16WHeB6mz80_1QwrKHsAau3jsKB3iBT0vIXzapb4x3dKIg1niQzG3gsd3-E22VCEdsgvSBNVoqOilb-Bdlja4ZDbVIOt-MCn0bz23RoprRyKTnXY4fl9uzWIrwP5kWWZuzM6EBKsVJx1dlClE9j8EnSoNgF02WdtevqVx75DFrkTvTthtFzpUSSjyL-NUVHIuwnNRd7-Vyw1r9BKZPEdr8pxVzhI2C9ciar43RpzNneKuqavi4EdCkVGu4CyfwrsueIdmuqSC4vvmYDin5wLqW2PU7jUeoPgzDUHpB453Sl1QUozD3K7zuMd_VZxyPVAl7x9S6G30W_-0m00]--></g></svg>