<?xml version="1.0" encoding="us-ascii" standalone="no"?><svg xmlns="http://www.w3.org/2000/svg" xmlns:xlink="http://www.w3.org/1999/xlink" contentStyleType="text/css" height="550px" preserveAspectRatio="none" style="width:1250px;height:550px;background:#FFFFFF;" version="1.1" viewBox="0 0 1250 550" width="1250px" zoomAndPan="magnify"><defs/><g><rect fill="#DDDDDD" height="538.5156" style="stroke:#181818;stroke-width:0.5;" width="1020" x="224" y="6"/><text fill="#000000" font-family="sans-serif" font-size="13" font-weight="bold" lengthAdjust="spacing" textLength="75" x="696.5" y="17.7686">ReviewsGet</text><rect fill="#FFFFFF" height="331.1875" style="stroke:#181818;stroke-width:1.0;" width="10" x="283.5" y="116.6875"/><rect fill="#FFFFFF" height="174.0938" style="stroke:#181818;stroke-width:1.0;" width="10" x="519.5" y="145.2109"/><rect fill="#FFFFFF" height="58.5234" style="stroke:#181818;stroke-width:1.0;" width="10" x="702.5" y="173.7344"/><rect fill="#FFFFFF" height="58.5234" style="stroke:#181818;stroke-width:1.0;" width="10" x="807.5" y="260.7813"/><rect fill="#FFFFFF" height="30" style="stroke:#181818;stroke-width:1.0;" width="10" x="1071.5" y="202.2578"/><rect fill="#FFFFFF" height="30" style="stroke:#181818;stroke-width:1.0;" width="10" x="1071.5" y="289.3047"/><rect fill="#FFFFFF" height="30" style="stroke:#181818;stroke-width:1.0;" width="10" x="1178.5" y="389.3516"/><line style="stroke:#181818;stroke-width:0.5;stroke-dasharray:5.0,5.0;" x1="42" x2="42" y1="86.1641" y2="465.875"/><line style="stroke:#181818;stroke-width:0.5;stroke-dasharray:5.0,5.0;" x1="288" x2="288" y1="86.1641" y2="465.875"/><line style="stroke:#181818;stroke-width:0.5;stroke-dasharray:5.0,5.0;" x1="524.5" x2="524.5" y1="86.1641" y2="465.875"/><line style="stroke:#181818;stroke-width:0.5;stroke-dasharray:5.0,5.0;" x1="707" x2="707" y1="86.1641" y2="465.875"/><line style="stroke:#181818;stroke-width:0.5;stroke-dasharray:5.0,5.0;" x1="812" x2="812" y1="86.1641" y2="465.875"/><line style="stroke:#181818;stroke-width:0.5;stroke-dasharray:5.0,5.0;" x1="1076" x2="1076" y1="86.1641" y2="465.875"/><line style="stroke:#181818;stroke-width:0.5;stroke-dasharray:5.0,5.0;" x1="1183" x2="1183" y1="86.1641" y2="465.875"/><text fill="#000000" font-family="sans-serif" font-size="14" lengthAdjust="spacing" textLength="69" x="5" y="83.1973">Registered</text><ellipse cx="42.5" cy="19.0234" fill="#E2E2F0" rx="8" ry="8" style="stroke:#181818;stroke-width:0.5;"/><path d="M42.5,27.0234 L42.5,54.0234 M29.5,35.0234 L55.5,35.0234 M42.5,54.0234 L29.5,69.0234 M42.5,54.0234 L55.5,69.0234 " fill="none" style="stroke:#181818;stroke-width:0.5;"/><text fill="#000000" font-family="sans-serif" font-size="14" lengthAdjust="spacing" textLength="69" x="5" y="477.5488">Registered</text><ellipse cx="42.5" cy="489.0156" fill="#E2E2F0" rx="8" ry="8" style="stroke:#181818;stroke-width:0.5;"/><path d="M42.5,497.0156 L42.5,524.0156 M29.5,505.0156 L55.5,505.0156 M42.5,524.0156 L29.5,539.0156 M42.5,524.0156 L55.5,539.0156 " fill="none" style="stroke:#181818;stroke-width:0.5;"/><rect fill="#E2E2F0" height="29.6406" rx="2.5" ry="2.5" style="stroke:#181818;stroke-width:0.5;" width="121" x="228" y="55.5234"/><text fill="#000000" font-family="sans-serif" font-size="14" lengthAdjust="spacing" textLength="107" x="235" y="75.1973">ReviewController</text><rect fill="#E2E2F0" height="29.6406" rx="2.5" ry="2.5" style="stroke:#181818;stroke-width:0.5;" width="121" x="228" y="464.875"/><text fill="#000000" font-family="sans-serif" font-size="14" lengthAdjust="spacing" textLength="107" x="235" y="484.5488">ReviewController</text><rect fill="#E2E2F0" height="29.6406" rx="2.5" ry="2.5" style="stroke:#181818;stroke-width:0.5;" width="106" x="471.5" y="55.5234"/><text fill="#000000" font-family="sans-serif" font-size="14" lengthAdjust="spacing" textLength="92" x="478.5" y="75.1973">ReviewService</text><rect fill="#E2E2F0" height="29.6406" rx="2.5" ry="2.5" style="stroke:#181818;stroke-width:0.5;" width="106" x="471.5" y="464.875"/><text fill="#000000" font-family="sans-serif" font-size="14" lengthAdjust="spacing" textLength="92" x="478.5" y="484.5488">ReviewService</text><rect fill="#E2E2F0" height="29.6406" rx="2.5" ry="2.5" style="stroke:#181818;stroke-width:0.5;" width="97" x="659" y="55.5234"/><text fill="#000000" font-family="sans-serif" font-size="14" lengthAdjust="spacing" textLength="83" x="666" y="75.1973">ProductRepo</text><rect fill="#E2E2F0" height="29.6406" rx="2.5" ry="2.5" style="stroke:#181818;stroke-width:0.5;" width="97" x="659" y="464.875"/><text fill="#000000" font-family="sans-serif" font-size="14" lengthAdjust="spacing" textLength="83" x="666" y="484.5488">ProductRepo</text><rect fill="#E2E2F0" height="29.6406" rx="2.5" ry="2.5" style="stroke:#181818;stroke-width:0.5;" width="93" x="766" y="55.5234"/><text fill="#000000" font-family="sans-serif" font-size="14" lengthAdjust="spacing" textLength="79" x="773" y="75.1973">ReviewRepo</text><rect fill="#E2E2F0" height="29.6406" rx="2.5" ry="2.5" style="stroke:#181818;stroke-width:0.5;" width="93" x="766" y="464.875"/><text fill="#000000" font-family="sans-serif" font-size="14" lengthAdjust="spacing" textLength="79" x="773" y="484.5488">ReviewRepo</text><text fill="#000000" font-family="sans-serif" font-size="14" lengthAdjust="spacing" textLength="75" x="1036" y="83.1973">ReviewsGet</text><path d="M1058.5,34.5234 C1058.5,24.5234 1076.5,24.5234 1076.5,24.5234 C1076.5,24.5234 1094.5,24.5234 1094.5,34.5234 L1094.5,60.5234 C1094.5,70.5234 1076.5,70.5234 1076.5,70.5234 C1076.5,70.5234 1058.5,70.5234 1058.5,60.5234 L1058.5,34.5234 " fill="#E2E2F0" style="stroke:#181818;stroke-width:1.5;"/><path d="M1058.5,34.5234 C1058.5,44.5234 1076.5,44.5234 1076.5,44.5234 C1076.5,44.5234 1094.5,44.5234 1094.5,34.5234 " fill="none" style="stroke:#181818;stroke-width:1.5;"/><text fill="#000000" font-family="sans-serif" font-size="14" lengthAdjust="spacing" textLength="75" x="1036" y="477.5488">ReviewsGet</text><path d="M1058.5,490.5156 C1058.5,480.5156 1076.5,480.5156 1076.5,480.5156 C1076.5,480.5156 1094.5,480.5156 1094.5,490.5156 L1094.5,516.5156 C1094.5,526.5156 1076.5,526.5156 1076.5,526.5156 C1076.5,526.5156 1058.5,526.5156 1058.5,516.5156 L1058.5,490.5156 " fill="#E2E2F0" style="stroke:#181818;stroke-width:1.5;"/><path d="M1058.5,490.5156 C1058.5,500.5156 1076.5,500.5156 1076.5,500.5156 C1076.5,500.5156 1094.5,500.5156 1094.5,490.5156 " fill="none" style="stroke:#181818;stroke-width:1.5;"/><rect fill="#E2E2F0" height="29.6406" rx="2.5" ry="2.5" style="stroke:#181818;stroke-width:0.5;" width="113" x="1127" y="55.5234"/><text fill="#000000" font-family="sans-serif" font-size="14" lengthAdjust="spacing" textLength="99" x="1134" y="75.1973">MessageBroker</text><rect fill="#E2E2F0" height="29.6406" rx="2.5" ry="2.5" style="stroke:#181818;stroke-width:0.5;" width="113" x="1127" y="464.875"/><text fill="#000000" font-family="sans-serif" font-size="14" lengthAdjust="spacing" textLength="99" x="1134" y="484.5488">MessageBroker</text><rect fill="#FFFFFF" height="331.1875" style="stroke:#181818;stroke-width:1.0;" width="10" x="283.5" y="116.6875"/><rect fill="#FFFFFF" height="174.0938" style="stroke:#181818;stroke-width:1.0;" width="10" x="519.5" y="145.2109"/><rect fill="#FFFFFF" height="58.5234" style="stroke:#181818;stroke-width:1.0;" width="10" x="702.5" y="173.7344"/><rect fill="#FFFFFF" height="58.5234" style="stroke:#181818;stroke-width:1.0;" width="10" x="807.5" y="260.7813"/><rect fill="#FFFFFF" height="30" style="stroke:#181818;stroke-width:1.0;" width="10" x="1071.5" y="202.2578"/><rect fill="#FFFFFF" height="30" style="stroke:#181818;stroke-width:1.0;" width="10" x="1071.5" y="289.3047"/><rect fill="#FFFFFF" height="30" style="stroke:#181818;stroke-width:1.0;" width="10" x="1178.5" y="389.3516"/><polygon fill="#181818" points="271.5,112.6875,281.5,116.6875,271.5,120.6875,275.5,116.6875" style="stroke:#181818;stroke-width:1.0;"/><line style="stroke:#181818;stroke-width:1.0;" x1="42.5" x2="277.5" y1="116.6875" y2="116.6875"/><text fill="#000000" font-family="sans-serif" font-size="13" font-weight="bold" lengthAdjust="spacing" textLength="7" x="49.5" y="111.9326">1</text><text fill="#000000" font-family="sans-serif" font-size="13" lengthAdjust="spacing" textLength="211" x="60.5" y="111.9326">GET /products/{sku}/reviews/{status}</text><polygon fill="#181818" points="507.5,141.2109,517.5,145.2109,507.5,149.2109,511.5,145.2109" style="stroke:#181818;stroke-width:1.0;"/><line style="stroke:#181818;stroke-width:1.0;" x1="293.5" x2="513.5" y1="145.2109" y2="145.2109"/><text fill="#000000" font-family="sans-serif" font-size="13" font-weight="bold" lengthAdjust="spacing" textLength="7" x="300.5" y="140.4561">2</text><text fill="#000000" font-family="sans-serif" font-size="13" lengthAdjust="spacing" textLength="196" x="311.5" y="140.4561">getReviewsOfProduct(sku, status)</text><polygon fill="#181818" points="690.5,169.7344,700.5,173.7344,690.5,177.7344,694.5,173.7344" style="stroke:#181818;stroke-width:1.0;"/><line style="stroke:#181818;stroke-width:1.0;" x1="529.5" x2="696.5" y1="173.7344" y2="173.7344"/><text fill="#000000" font-family="sans-serif" font-size="13" font-weight="bold" lengthAdjust="spacing" textLength="7" x="536.5" y="168.9795">3</text><text fill="#000000" font-family="sans-serif" font-size="13" lengthAdjust="spacing" textLength="143" x="547.5" y="168.9795">product= findBySku(sku)</text><polygon fill="#181818" points="1059.5,198.2578,1069.5,202.2578,1059.5,206.2578,1063.5,202.2578" style="stroke:#181818;stroke-width:1.0;"/><line style="stroke:#181818;stroke-width:1.0;" x1="712.5" x2="1065.5" y1="202.2578" y2="202.2578"/><text fill="#000000" font-family="sans-serif" font-size="13" font-weight="bold" lengthAdjust="spacing" textLength="7" x="719.5" y="197.5029">4</text><text fill="#000000" font-family="sans-serif" font-size="13" lengthAdjust="spacing" textLength="88" x="730.5" y="197.5029">findBySku(sku)</text><polygon fill="#181818" points="795.5,256.7813,805.5,260.7813,795.5,264.7813,799.5,260.7813" style="stroke:#181818;stroke-width:1.0;"/><line style="stroke:#181818;stroke-width:1.0;" x1="529.5" x2="801.5" y1="260.7813" y2="260.7813"/><text fill="#000000" font-family="sans-serif" font-size="13" font-weight="bold" lengthAdjust="spacing" textLength="7" x="536.5" y="256.0264">5</text><text fill="#000000" font-family="sans-serif" font-size="13" lengthAdjust="spacing" textLength="224" x="547.5" y="256.0264">findByProductIdStatus(product, status)</text><polygon fill="#181818" points="1059.5,285.3047,1069.5,289.3047,1059.5,293.3047,1063.5,289.3047" style="stroke:#181818;stroke-width:1.0;"/><line style="stroke:#181818;stroke-width:1.0;" x1="817.5" x2="1065.5" y1="289.3047" y2="289.3047"/><text fill="#000000" font-family="sans-serif" font-size="13" font-weight="bold" lengthAdjust="spacing" textLength="7" x="824.5" y="284.5498">6</text><text fill="#000000" font-family="sans-serif" font-size="13" lengthAdjust="spacing" textLength="224" x="835.5" y="284.5498">findByProductIdStatus(product, status)</text><line style="stroke:#181818;stroke-width:1.0;" x1="293.5" x2="335.5" y1="347.8281" y2="347.8281"/><line style="stroke:#181818;stroke-width:1.0;" x1="335.5" x2="335.5" y1="347.8281" y2="360.8281"/><line style="stroke:#181818;stroke-width:1.0;" x1="294.5" x2="335.5" y1="360.8281" y2="360.8281"/><polygon fill="#181818" points="304.5,356.8281,294.5,360.8281,304.5,364.8281,300.5,360.8281" style="stroke:#181818;stroke-width:1.0;"/><text fill="#000000" font-family="sans-serif" font-size="13" font-weight="bold" lengthAdjust="spacing" textLength="7" x="300.5" y="343.0732">7</text><text fill="#000000" font-family="sans-serif" font-size="13" lengthAdjust="spacing" textLength="178" x="311.5" y="343.0732">event = new event(Get,reviews)</text><polygon fill="#181818" points="1166.5,385.3516,1176.5,389.3516,1166.5,393.3516,1170.5,389.3516" style="stroke:#181818;stroke-width:1.0;"/><line style="stroke:#181818;stroke-width:1.0;" x1="293.5" x2="1172.5" y1="389.3516" y2="389.3516"/><text fill="#000000" font-family="sans-serif" font-size="13" font-weight="bold" lengthAdjust="spacing" textLength="7" x="300.5" y="384.5967">8</text><text fill="#000000" font-family="sans-serif" font-size="13" lengthAdjust="spacing" textLength="119" x="311.5" y="384.5967">sendMessage(event)</text><polygon fill="#181818" points="53.5,443.875,43.5,447.875,53.5,451.875,49.5,447.875" style="stroke:#181818;stroke-width:1.0;"/><line style="stroke:#181818;stroke-width:1.0;stroke-dasharray:2.0,2.0;" x1="47.5" x2="287.5" y1="447.875" y2="447.875"/><text fill="#000000" font-family="sans-serif" font-size="13" font-weight="bold" lengthAdjust="spacing" textLength="7" x="59.5" y="443.1201">9</text><text fill="#000000" font-family="sans-serif" font-size="13" lengthAdjust="spacing" textLength="109" x="70.5" y="443.1201">Retorna as reviews</text><!--SRC=[bPDVQy8m5CNVyoc2BwkWA_HHS0_-GGOJfNLxZytL1JNfabGtXjzzDsdMMIbkorDjJduzvtfozsfjOGPnNEoPjELXVv-hGspWhGIPGvyBjjNiG0WhhPBbOGsQiDmgJLFO2cD10wVCqETicfArUgUT58u2JcO6jaCAfgt8HO7axusnabQh_HvqnvqRhzAdDba6-YXoy1f4lpGrIwrucTiK2kKLwNIvQACq10dXpB8rCz0mwROde-RfEHZ3jZ3IQXTyphCP8IuaxJzuqtH0PzCLZOlAYea_pQuynxe2uo_BR6dERbZYo2nKIIakzu0GbmeXMx31p68JOaL8wj4AqFL7QeWV1GtB4v3amWreC3Aa6o7vw2FRbOxJhTNVgsRveT6MvJOSTp92Vx_G6aGSOzi-XrkAYzs6eyjqIMqaZEYHPtuyKKZT75Thr8IqvKokWlwB_-S9t1Z1LVpAvSLB_u_xmlqK3uw0BHrI2QVgES8YzqBrkhKQEujY0vA7FaTUV5Kfr-ohRxfN5GGfllG3lEvuwILpTo5yY5oSSEel]--></g></svg>