<?xml version="1.0" encoding="us-ascii" standalone="no"?><svg xmlns="http://www.w3.org/2000/svg" xmlns:xlink="http://www.w3.org/1999/xlink" contentStyleType="text/css" height="521px" preserveAspectRatio="none" style="width:1107px;height:521px;background:#FFFFFF;" version="1.1" viewBox="0 0 1107 521" width="1107px" zoomAndPan="magnify"><defs/><g><rect fill="#DDDDDD" height="509.9922" style="stroke:#181818;stroke-width:0.5;" width="967" x="134" y="6"/><text fill="#000000" font-family="sans-serif" font-size="13" font-weight="bold" lengthAdjust="spacing" textLength="75" x="580" y="17.7686">ReviewsGet</text><rect fill="#FFFFFF" height="302.6641" style="stroke:#181818;stroke-width:1.0;" width="10" x="193.5" y="116.6875"/><rect fill="#FFFFFF" height="145.5703" style="stroke:#181818;stroke-width:1.0;" width="10" x="410.5" y="145.2109"/><rect fill="#FFFFFF" height="58.5234" style="stroke:#181818;stroke-width:1.0;" width="10" x="609.5" y="173.7344"/><rect fill="#FFFFFF" height="30" style="stroke:#181818;stroke-width:1.0;" width="10" x="811.5" y="202.2578"/><rect fill="#FFFFFF" height="30" style="stroke:#181818;stroke-width:1.0;" width="10" x="918.5" y="360.8281"/><rect fill="#FFFFFF" height="30" style="stroke:#181818;stroke-width:1.0;" width="10" x="1038.5" y="260.7813"/><line style="stroke:#181818;stroke-width:0.5;stroke-dasharray:5.0,5.0;" x1="38" x2="38" y1="86.1641" y2="437.3516"/><line style="stroke:#181818;stroke-width:0.5;stroke-dasharray:5.0,5.0;" x1="198" x2="198" y1="86.1641" y2="437.3516"/><line style="stroke:#181818;stroke-width:0.5;stroke-dasharray:5.0,5.0;" x1="415.5" x2="415.5" y1="86.1641" y2="437.3516"/><line style="stroke:#181818;stroke-width:0.5;stroke-dasharray:5.0,5.0;" x1="614" x2="614" y1="86.1641" y2="437.3516"/><line style="stroke:#181818;stroke-width:0.5;stroke-dasharray:5.0,5.0;" x1="719" x2="719" y1="86.1641" y2="437.3516"/><line style="stroke:#181818;stroke-width:0.5;stroke-dasharray:5.0,5.0;" x1="816" x2="816" y1="86.1641" y2="437.3516"/><line style="stroke:#181818;stroke-width:0.5;stroke-dasharray:5.0,5.0;" x1="923" x2="923" y1="86.1641" y2="437.3516"/><line style="stroke:#181818;stroke-width:0.5;stroke-dasharray:5.0,5.0;" x1="1043" x2="1043" y1="86.1641" y2="437.3516"/><text fill="#000000" font-family="sans-serif" font-size="14" lengthAdjust="spacing" textLength="61" x="5" y="83.1973">Customer</text><ellipse cx="38.5" cy="19.0234" fill="#E2E2F0" rx="8" ry="8" style="stroke:#181818;stroke-width:0.5;"/><path d="M38.5,27.0234 L38.5,54.0234 M25.5,35.0234 L51.5,35.0234 M38.5,54.0234 L25.5,69.0234 M38.5,54.0234 L51.5,69.0234 " fill="none" style="stroke:#181818;stroke-width:0.5;"/><text fill="#000000" font-family="sans-serif" font-size="14" lengthAdjust="spacing" textLength="61" x="5" y="449.0254">Customer</text><ellipse cx="38.5" cy="460.4922" fill="#E2E2F0" rx="8" ry="8" style="stroke:#181818;stroke-width:0.5;"/><path d="M38.5,468.4922 L38.5,495.4922 M25.5,476.4922 L51.5,476.4922 M38.5,495.4922 L25.5,510.4922 M38.5,495.4922 L51.5,510.4922 " fill="none" style="stroke:#181818;stroke-width:0.5;"/><rect fill="#E2E2F0" height="29.6406" rx="2.5" ry="2.5" style="stroke:#181818;stroke-width:0.5;" width="121" x="138" y="55.5234"/><text fill="#000000" font-family="sans-serif" font-size="14" lengthAdjust="spacing" textLength="107" x="145" y="75.1973">ReviewController</text><rect fill="#E2E2F0" height="29.6406" rx="2.5" ry="2.5" style="stroke:#181818;stroke-width:0.5;" width="121" x="138" y="436.3516"/><text fill="#000000" font-family="sans-serif" font-size="14" lengthAdjust="spacing" textLength="107" x="145" y="456.0254">ReviewController</text><rect fill="#E2E2F0" height="29.6406" rx="2.5" ry="2.5" style="stroke:#181818;stroke-width:0.5;" width="106" x="362.5" y="55.5234"/><text fill="#000000" font-family="sans-serif" font-size="14" lengthAdjust="spacing" textLength="92" x="369.5" y="75.1973">ReviewService</text><rect fill="#E2E2F0" height="29.6406" rx="2.5" ry="2.5" style="stroke:#181818;stroke-width:0.5;" width="106" x="362.5" y="436.3516"/><text fill="#000000" font-family="sans-serif" font-size="14" lengthAdjust="spacing" textLength="92" x="369.5" y="456.0254">ReviewService</text><rect fill="#E2E2F0" height="29.6406" rx="2.5" ry="2.5" style="stroke:#181818;stroke-width:0.5;" width="97" x="566" y="55.5234"/><text fill="#000000" font-family="sans-serif" font-size="14" lengthAdjust="spacing" textLength="83" x="573" y="75.1973">ProductRepo</text><rect fill="#E2E2F0" height="29.6406" rx="2.5" ry="2.5" style="stroke:#181818;stroke-width:0.5;" width="97" x="566" y="436.3516"/><text fill="#000000" font-family="sans-serif" font-size="14" lengthAdjust="spacing" textLength="83" x="573" y="456.0254">ProductRepo</text><rect fill="#E2E2F0" height="29.6406" rx="2.5" ry="2.5" style="stroke:#181818;stroke-width:0.5;" width="93" x="673" y="55.5234"/><text fill="#000000" font-family="sans-serif" font-size="14" lengthAdjust="spacing" textLength="79" x="680" y="75.1973">ReviewRepo</text><rect fill="#E2E2F0" height="29.6406" rx="2.5" ry="2.5" style="stroke:#181818;stroke-width:0.5;" width="93" x="673" y="436.3516"/><text fill="#000000" font-family="sans-serif" font-size="14" lengthAdjust="spacing" textLength="79" x="680" y="456.0254">ReviewRepo</text><text fill="#000000" font-family="sans-serif" font-size="14" lengthAdjust="spacing" textLength="75" x="776" y="83.1973">ReviewsGet</text><path d="M798.5,34.5234 C798.5,24.5234 816.5,24.5234 816.5,24.5234 C816.5,24.5234 834.5,24.5234 834.5,34.5234 L834.5,60.5234 C834.5,70.5234 816.5,70.5234 816.5,70.5234 C816.5,70.5234 798.5,70.5234 798.5,60.5234 L798.5,34.5234 " fill="#E2E2F0" style="stroke:#181818;stroke-width:1.5;"/><path d="M798.5,34.5234 C798.5,44.5234 816.5,44.5234 816.5,44.5234 C816.5,44.5234 834.5,44.5234 834.5,34.5234 " fill="none" style="stroke:#181818;stroke-width:1.5;"/><text fill="#000000" font-family="sans-serif" font-size="14" lengthAdjust="spacing" textLength="75" x="776" y="449.0254">ReviewsGet</text><path d="M798.5,461.9922 C798.5,451.9922 816.5,451.9922 816.5,451.9922 C816.5,451.9922 834.5,451.9922 834.5,461.9922 L834.5,487.9922 C834.5,497.9922 816.5,497.9922 816.5,497.9922 C816.5,497.9922 798.5,497.9922 798.5,487.9922 L798.5,461.9922 " fill="#E2E2F0" style="stroke:#181818;stroke-width:1.5;"/><path d="M798.5,461.9922 C798.5,471.9922 816.5,471.9922 816.5,471.9922 C816.5,471.9922 834.5,471.9922 834.5,461.9922 " fill="none" style="stroke:#181818;stroke-width:1.5;"/><rect fill="#E2E2F0" height="29.6406" rx="2.5" ry="2.5" style="stroke:#181818;stroke-width:0.5;" width="113" x="867" y="55.5234"/><text fill="#000000" font-family="sans-serif" font-size="14" lengthAdjust="spacing" textLength="99" x="874" y="75.1973">MessageBroker</text><rect fill="#E2E2F0" height="29.6406" rx="2.5" ry="2.5" style="stroke:#181818;stroke-width:0.5;" width="113" x="867" y="436.3516"/><text fill="#000000" font-family="sans-serif" font-size="14" lengthAdjust="spacing" textLength="99" x="874" y="456.0254">MessageBroker</text><rect fill="#E2E2F0" height="29.6406" rx="2.5" ry="2.5" style="stroke:#181818;stroke-width:0.5;" width="107" x="990" y="55.5234"/><text fill="#000000" font-family="sans-serif" font-size="14" lengthAdjust="spacing" textLength="93" x="997" y="75.1973">ReviewMapper</text><rect fill="#E2E2F0" height="29.6406" rx="2.5" ry="2.5" style="stroke:#181818;stroke-width:0.5;" width="107" x="990" y="436.3516"/><text fill="#000000" font-family="sans-serif" font-size="14" lengthAdjust="spacing" textLength="93" x="997" y="456.0254">ReviewMapper</text><rect fill="#FFFFFF" height="302.6641" style="stroke:#181818;stroke-width:1.0;" width="10" x="193.5" y="116.6875"/><rect fill="#FFFFFF" height="145.5703" style="stroke:#181818;stroke-width:1.0;" width="10" x="410.5" y="145.2109"/><rect fill="#FFFFFF" height="58.5234" style="stroke:#181818;stroke-width:1.0;" width="10" x="609.5" y="173.7344"/><rect fill="#FFFFFF" height="30" style="stroke:#181818;stroke-width:1.0;" width="10" x="811.5" y="202.2578"/><rect fill="#FFFFFF" height="30" style="stroke:#181818;stroke-width:1.0;" width="10" x="918.5" y="360.8281"/><rect fill="#FFFFFF" height="30" style="stroke:#181818;stroke-width:1.0;" width="10" x="1038.5" y="260.7813"/><polygon fill="#181818" points="181.5,112.6875,191.5,116.6875,181.5,120.6875,185.5,116.6875" style="stroke:#181818;stroke-width:1.0;"/><line style="stroke:#181818;stroke-width:1.0;" x1="38.5" x2="187.5" y1="116.6875" y2="116.6875"/><text fill="#000000" font-family="sans-serif" font-size="13" font-weight="bold" lengthAdjust="spacing" textLength="7" x="45.5" y="111.9326">1</text><text fill="#000000" font-family="sans-serif" font-size="13" lengthAdjust="spacing" textLength="125" x="56.5" y="111.9326">GET /reviews/{userID}</text><polygon fill="#181818" points="398.5,141.2109,408.5,145.2109,398.5,149.2109,402.5,145.2109" style="stroke:#181818;stroke-width:1.0;"/><line style="stroke:#181818;stroke-width:1.0;" x1="203.5" x2="404.5" y1="145.2109" y2="145.2109"/><text fill="#000000" font-family="sans-serif" font-size="13" font-weight="bold" lengthAdjust="spacing" textLength="7" x="210.5" y="140.4561">2</text><text fill="#000000" font-family="sans-serif" font-size="13" lengthAdjust="spacing" textLength="176" x="221.5" y="140.4561">reviews = findReviewsByUser()</text><polygon fill="#181818" points="597.5,169.7344,607.5,173.7344,597.5,177.7344,601.5,173.7344" style="stroke:#181818;stroke-width:1.0;"/><line style="stroke:#181818;stroke-width:1.0;" x1="420.5" x2="603.5" y1="173.7344" y2="173.7344"/><text fill="#000000" font-family="sans-serif" font-size="13" font-weight="bold" lengthAdjust="spacing" textLength="7" x="427.5" y="168.9795">3</text><text fill="#000000" font-family="sans-serif" font-size="13" lengthAdjust="spacing" textLength="159" x="438.5" y="168.9795">r = findReviewsByUser(sku)</text><polygon fill="#181818" points="799.5,198.2578,809.5,202.2578,799.5,206.2578,803.5,202.2578" style="stroke:#181818;stroke-width:1.0;"/><line style="stroke:#181818;stroke-width:1.0;" x1="619.5" x2="805.5" y1="202.2578" y2="202.2578"/><text fill="#000000" font-family="sans-serif" font-size="13" font-weight="bold" lengthAdjust="spacing" textLength="7" x="626.5" y="197.5029">4</text><text fill="#000000" font-family="sans-serif" font-size="13" lengthAdjust="spacing" textLength="102" x="637.5" y="197.5029">findByUserId(sku)</text><polygon fill="#181818" points="1026.5,256.7813,1036.5,260.7813,1026.5,264.7813,1030.5,260.7813" style="stroke:#181818;stroke-width:1.0;"/><line style="stroke:#181818;stroke-width:1.0;" x1="420.5" x2="1032.5" y1="260.7813" y2="260.7813"/><text fill="#000000" font-family="sans-serif" font-size="13" font-weight="bold" lengthAdjust="spacing" textLength="7" x="427.5" y="256.0264">5</text><text fill="#000000" font-family="sans-serif" font-size="13" lengthAdjust="spacing" textLength="64" x="438.5" y="256.0264">toDtoList(r)</text><line style="stroke:#181818;stroke-width:1.0;" x1="203.5" x2="245.5" y1="319.3047" y2="319.3047"/><line style="stroke:#181818;stroke-width:1.0;" x1="245.5" x2="245.5" y1="319.3047" y2="332.3047"/><line style="stroke:#181818;stroke-width:1.0;" x1="204.5" x2="245.5" y1="332.3047" y2="332.3047"/><polygon fill="#181818" points="214.5,328.3047,204.5,332.3047,214.5,336.3047,210.5,332.3047" style="stroke:#181818;stroke-width:1.0;"/><text fill="#000000" font-family="sans-serif" font-size="13" font-weight="bold" lengthAdjust="spacing" textLength="7" x="210.5" y="314.5498">6</text><text fill="#000000" font-family="sans-serif" font-size="13" lengthAdjust="spacing" textLength="182" x="221.5" y="314.5498">event = new event(Get, reviews)</text><polygon fill="#181818" points="906.5,356.8281,916.5,360.8281,906.5,364.8281,910.5,360.8281" style="stroke:#181818;stroke-width:1.0;"/><line style="stroke:#181818;stroke-width:1.0;" x1="203.5" x2="912.5" y1="360.8281" y2="360.8281"/><text fill="#000000" font-family="sans-serif" font-size="13" font-weight="bold" lengthAdjust="spacing" textLength="7" x="210.5" y="356.0732">7</text><text fill="#000000" font-family="sans-serif" font-size="13" lengthAdjust="spacing" textLength="119" x="221.5" y="356.0732">sendMessage(event)</text><polygon fill="#181818" points="49.5,415.3516,39.5,419.3516,49.5,423.3516,45.5,419.3516" style="stroke:#181818;stroke-width:1.0;"/><line style="stroke:#181818;stroke-width:1.0;stroke-dasharray:2.0,2.0;" x1="43.5" x2="197.5" y1="419.3516" y2="419.3516"/><text fill="#000000" font-family="sans-serif" font-size="13" font-weight="bold" lengthAdjust="spacing" textLength="7" x="55.5" y="414.5967">8</text><text fill="#000000" font-family="sans-serif" font-size="13" lengthAdjust="spacing" textLength="109" x="66.5" y="414.5967">Retorna as reviews</text><!--SRC=[VPFBRi8m44Nt_WgBJODK6gdBI7G1GGW9L1IWUvDCgKLYftw4LbN_lMFdKOBIUcLbxZsUL-xUZ2br58PbpeInHVwGoYBKy6v1f339E3ifLX32h9725aTGXAL6AZgtsiW256MQ7dQBX1pb1nqbK76uw2MO4IcPCZpb9NBRm5mAesIUWnevttoVh8TaEr0LJy5h4FtIrsoLp6ng4YYbLoIBxVCGfITu91apxCWqz99quNZMTsz0QtQ2cPBd9i_DRac8Av9EddpIDABBnPw6gYQ5NrQ3MiNVhZUyOWRgqYWUTq6NAmDTZO5EwIiNMPF8xFE0zc3izHt15qwRu-s8SQKWPT2lptRS6ThJuNoNwC1n0OUEPvYVezQuLJOCx46nTKFn3FvJN4LxIRKrDlFPiB9q_O-eaR6HQwvDeFhvT9o-XVpnse3gAkhxxOVxEsIe03TYIWLSwdk0ItFVJd7SoN51KAr1PCto15vzCr6tHZUFkayr12b-moAQ0FvVWhd5QnuYLmwd_W40]--></g></svg>