<?xml version="1.0" encoding="us-ascii" standalone="no"?><svg xmlns="http://www.w3.org/2000/svg" xmlns:xlink="http://www.w3.org/1999/xlink" contentStyleType="text/css" height="521px" preserveAspectRatio="none" style="width:1109px;height:521px;background:#FFFFFF;" version="1.1" viewBox="0 0 1109 521" width="1109px" zoomAndPan="magnify"><defs/><g><rect fill="#DDDDDD" height="509.9922" style="stroke:#181818;stroke-width:0.5;" width="970.5" x="132.5" y="6"/><text fill="#000000" font-family="sans-serif" font-size="13" font-weight="bold" lengthAdjust="spacing" textLength="75" x="580.25" y="17.7686">ReviewsGet</text><rect fill="#FFFFFF" height="302.6641" style="stroke:#181818;stroke-width:1.0;" width="10" x="195.5" y="116.6875"/><rect fill="#FFFFFF" height="145.5703" style="stroke:#181818;stroke-width:1.0;" width="10" x="408.5" y="145.2109"/><rect fill="#FFFFFF" height="58.5234" style="stroke:#181818;stroke-width:1.0;" width="10" x="611.5" y="173.7344"/><rect fill="#FFFFFF" height="30" style="stroke:#181818;stroke-width:1.0;" width="10" x="813.5" y="202.2578"/><rect fill="#FFFFFF" height="30" style="stroke:#181818;stroke-width:1.0;" width="10" x="920.5" y="360.8281"/><rect fill="#FFFFFF" height="30" style="stroke:#181818;stroke-width:1.0;" width="10" x="1040.5" y="260.7813"/><line style="stroke:#181818;stroke-width:0.5;stroke-dasharray:5.0,5.0;" x1="40" x2="40" y1="86.1641" y2="437.3516"/><line style="stroke:#181818;stroke-width:0.5;stroke-dasharray:5.0,5.0;" x1="200.5" x2="200.5" y1="86.1641" y2="437.3516"/><line style="stroke:#181818;stroke-width:0.5;stroke-dasharray:5.0,5.0;" x1="413.5" x2="413.5" y1="86.1641" y2="437.3516"/><line style="stroke:#181818;stroke-width:0.5;stroke-dasharray:5.0,5.0;" x1="616" x2="616" y1="86.1641" y2="437.3516"/><line style="stroke:#181818;stroke-width:0.5;stroke-dasharray:5.0,5.0;" x1="721" x2="721" y1="86.1641" y2="437.3516"/><line style="stroke:#181818;stroke-width:0.5;stroke-dasharray:5.0,5.0;" x1="818" x2="818" y1="86.1641" y2="437.3516"/><line style="stroke:#181818;stroke-width:0.5;stroke-dasharray:5.0,5.0;" x1="925" x2="925" y1="86.1641" y2="437.3516"/><line style="stroke:#181818;stroke-width:0.5;stroke-dasharray:5.0,5.0;" x1="1045" x2="1045" y1="86.1641" y2="437.3516"/><text fill="#000000" font-family="sans-serif" font-size="14" lengthAdjust="spacing" textLength="65" x="5" y="83.1973">Moderator</text><ellipse cx="40.5" cy="19.0234" fill="#E2E2F0" rx="8" ry="8" style="stroke:#181818;stroke-width:0.5;"/><path d="M40.5,27.0234 L40.5,54.0234 M27.5,35.0234 L53.5,35.0234 M40.5,54.0234 L27.5,69.0234 M40.5,54.0234 L53.5,69.0234 " fill="none" style="stroke:#181818;stroke-width:0.5;"/><text fill="#000000" font-family="sans-serif" font-size="14" lengthAdjust="spacing" textLength="65" x="5" y="449.0254">Moderator</text><ellipse cx="40.5" cy="460.4922" fill="#E2E2F0" rx="8" ry="8" style="stroke:#181818;stroke-width:0.5;"/><path d="M40.5,468.4922 L40.5,495.4922 M27.5,476.4922 L53.5,476.4922 M40.5,495.4922 L27.5,510.4922 M40.5,495.4922 L53.5,510.4922 " fill="none" style="stroke:#181818;stroke-width:0.5;"/><rect fill="#E2E2F0" height="29.6406" rx="2.5" ry="2.5" style="stroke:#181818;stroke-width:0.5;" width="128" x="136.5" y="55.5234"/><text fill="#000000" font-family="sans-serif" font-size="14" lengthAdjust="spacing" textLength="114" x="143.5" y="75.1973">ReviewsController</text><rect fill="#E2E2F0" height="29.6406" rx="2.5" ry="2.5" style="stroke:#181818;stroke-width:0.5;" width="128" x="136.5" y="436.3516"/><text fill="#000000" font-family="sans-serif" font-size="14" lengthAdjust="spacing" textLength="114" x="143.5" y="456.0254">ReviewsController</text><rect fill="#E2E2F0" height="29.6406" rx="2.5" ry="2.5" style="stroke:#181818;stroke-width:0.5;" width="106" x="360.5" y="55.5234"/><text fill="#000000" font-family="sans-serif" font-size="14" lengthAdjust="spacing" textLength="92" x="367.5" y="75.1973">ReviewService</text><rect fill="#E2E2F0" height="29.6406" rx="2.5" ry="2.5" style="stroke:#181818;stroke-width:0.5;" width="106" x="360.5" y="436.3516"/><text fill="#000000" font-family="sans-serif" font-size="14" lengthAdjust="spacing" textLength="92" x="367.5" y="456.0254">ReviewService</text><rect fill="#E2E2F0" height="29.6406" rx="2.5" ry="2.5" style="stroke:#181818;stroke-width:0.5;" width="97" x="568" y="55.5234"/><text fill="#000000" font-family="sans-serif" font-size="14" lengthAdjust="spacing" textLength="83" x="575" y="75.1973">ProductRepo</text><rect fill="#E2E2F0" height="29.6406" rx="2.5" ry="2.5" style="stroke:#181818;stroke-width:0.5;" width="97" x="568" y="436.3516"/><text fill="#000000" font-family="sans-serif" font-size="14" lengthAdjust="spacing" textLength="83" x="575" y="456.0254">ProductRepo</text><rect fill="#E2E2F0" height="29.6406" rx="2.5" ry="2.5" style="stroke:#181818;stroke-width:0.5;" width="93" x="675" y="55.5234"/><text fill="#000000" font-family="sans-serif" font-size="14" lengthAdjust="spacing" textLength="79" x="682" y="75.1973">ReviewRepo</text><rect fill="#E2E2F0" height="29.6406" rx="2.5" ry="2.5" style="stroke:#181818;stroke-width:0.5;" width="93" x="675" y="436.3516"/><text fill="#000000" font-family="sans-serif" font-size="14" lengthAdjust="spacing" textLength="79" x="682" y="456.0254">ReviewRepo</text><text fill="#000000" font-family="sans-serif" font-size="14" lengthAdjust="spacing" textLength="75" x="778" y="83.1973">ReviewsGet</text><path d="M800.5,34.5234 C800.5,24.5234 818.5,24.5234 818.5,24.5234 C818.5,24.5234 836.5,24.5234 836.5,34.5234 L836.5,60.5234 C836.5,70.5234 818.5,70.5234 818.5,70.5234 C818.5,70.5234 800.5,70.5234 800.5,60.5234 L800.5,34.5234 " fill="#E2E2F0" style="stroke:#181818;stroke-width:1.5;"/><path d="M800.5,34.5234 C800.5,44.5234 818.5,44.5234 818.5,44.5234 C818.5,44.5234 836.5,44.5234 836.5,34.5234 " fill="none" style="stroke:#181818;stroke-width:1.5;"/><text fill="#000000" font-family="sans-serif" font-size="14" lengthAdjust="spacing" textLength="75" x="778" y="449.0254">ReviewsGet</text><path d="M800.5,461.9922 C800.5,451.9922 818.5,451.9922 818.5,451.9922 C818.5,451.9922 836.5,451.9922 836.5,461.9922 L836.5,487.9922 C836.5,497.9922 818.5,497.9922 818.5,497.9922 C818.5,497.9922 800.5,497.9922 800.5,487.9922 L800.5,461.9922 " fill="#E2E2F0" style="stroke:#181818;stroke-width:1.5;"/><path d="M800.5,461.9922 C800.5,471.9922 818.5,471.9922 818.5,471.9922 C818.5,471.9922 836.5,471.9922 836.5,461.9922 " fill="none" style="stroke:#181818;stroke-width:1.5;"/><rect fill="#E2E2F0" height="29.6406" rx="2.5" ry="2.5" style="stroke:#181818;stroke-width:0.5;" width="113" x="869" y="55.5234"/><text fill="#000000" font-family="sans-serif" font-size="14" lengthAdjust="spacing" textLength="99" x="876" y="75.1973">MessageBroker</text><rect fill="#E2E2F0" height="29.6406" rx="2.5" ry="2.5" style="stroke:#181818;stroke-width:0.5;" width="113" x="869" y="436.3516"/><text fill="#000000" font-family="sans-serif" font-size="14" lengthAdjust="spacing" textLength="99" x="876" y="456.0254">MessageBroker</text><rect fill="#E2E2F0" height="29.6406" rx="2.5" ry="2.5" style="stroke:#181818;stroke-width:0.5;" width="107" x="992" y="55.5234"/><text fill="#000000" font-family="sans-serif" font-size="14" lengthAdjust="spacing" textLength="93" x="999" y="75.1973">ReviewMapper</text><rect fill="#E2E2F0" height="29.6406" rx="2.5" ry="2.5" style="stroke:#181818;stroke-width:0.5;" width="107" x="992" y="436.3516"/><text fill="#000000" font-family="sans-serif" font-size="14" lengthAdjust="spacing" textLength="93" x="999" y="456.0254">ReviewMapper</text><rect fill="#FFFFFF" height="302.6641" style="stroke:#181818;stroke-width:1.0;" width="10" x="195.5" y="116.6875"/><rect fill="#FFFFFF" height="145.5703" style="stroke:#181818;stroke-width:1.0;" width="10" x="408.5" y="145.2109"/><rect fill="#FFFFFF" height="58.5234" style="stroke:#181818;stroke-width:1.0;" width="10" x="611.5" y="173.7344"/><rect fill="#FFFFFF" height="30" style="stroke:#181818;stroke-width:1.0;" width="10" x="813.5" y="202.2578"/><rect fill="#FFFFFF" height="30" style="stroke:#181818;stroke-width:1.0;" width="10" x="920.5" y="360.8281"/><rect fill="#FFFFFF" height="30" style="stroke:#181818;stroke-width:1.0;" width="10" x="1040.5" y="260.7813"/><polygon fill="#181818" points="183.5,112.6875,193.5,116.6875,183.5,120.6875,187.5,116.6875" style="stroke:#181818;stroke-width:1.0;"/><line style="stroke:#181818;stroke-width:1.0;" x1="40.5" x2="189.5" y1="116.6875" y2="116.6875"/><text fill="#000000" font-family="sans-serif" font-size="13" font-weight="bold" lengthAdjust="spacing" textLength="7" x="47.5" y="111.9326">1</text><text fill="#000000" font-family="sans-serif" font-size="13" lengthAdjust="spacing" textLength="125" x="58.5" y="111.9326">GET /reviews/pending</text><polygon fill="#181818" points="396.5,141.2109,406.5,145.2109,396.5,149.2109,400.5,145.2109" style="stroke:#181818;stroke-width:1.0;"/><line style="stroke:#181818;stroke-width:1.0;" x1="205.5" x2="402.5" y1="145.2109" y2="145.2109"/><text fill="#000000" font-family="sans-serif" font-size="13" font-weight="bold" lengthAdjust="spacing" textLength="7" x="212.5" y="140.4561">2</text><text fill="#000000" font-family="sans-serif" font-size="13" lengthAdjust="spacing" textLength="173" x="223.5" y="140.4561">reviews = findPendingReview()</text><polygon fill="#181818" points="599.5,169.7344,609.5,173.7344,599.5,177.7344,603.5,173.7344" style="stroke:#181818;stroke-width:1.0;"/><line style="stroke:#181818;stroke-width:1.0;" x1="418.5" x2="605.5" y1="173.7344" y2="173.7344"/><text fill="#000000" font-family="sans-serif" font-size="13" font-weight="bold" lengthAdjust="spacing" textLength="7" x="425.5" y="168.9795">3</text><text fill="#000000" font-family="sans-serif" font-size="13" lengthAdjust="spacing" textLength="163" x="436.5" y="168.9795">r = findPendingReviews(sku)</text><polygon fill="#181818" points="801.5,198.2578,811.5,202.2578,801.5,206.2578,805.5,202.2578" style="stroke:#181818;stroke-width:1.0;"/><line style="stroke:#181818;stroke-width:1.0;" x1="621.5" x2="807.5" y1="202.2578" y2="202.2578"/><text fill="#000000" font-family="sans-serif" font-size="13" font-weight="bold" lengthAdjust="spacing" textLength="7" x="628.5" y="197.5029">4</text><text fill="#000000" font-family="sans-serif" font-size="13" lengthAdjust="spacing" textLength="143" x="639.5" y="197.5029">findPendingReviews(sku)</text><polygon fill="#181818" points="1028.5,256.7813,1038.5,260.7813,1028.5,264.7813,1032.5,260.7813" style="stroke:#181818;stroke-width:1.0;"/><line style="stroke:#181818;stroke-width:1.0;" x1="418.5" x2="1034.5" y1="260.7813" y2="260.7813"/><text fill="#000000" font-family="sans-serif" font-size="13" font-weight="bold" lengthAdjust="spacing" textLength="7" x="425.5" y="256.0264">5</text><text fill="#000000" font-family="sans-serif" font-size="13" lengthAdjust="spacing" textLength="64" x="436.5" y="256.0264">toDtoList(r)</text><line style="stroke:#181818;stroke-width:1.0;" x1="205.5" x2="247.5" y1="319.3047" y2="319.3047"/><line style="stroke:#181818;stroke-width:1.0;" x1="247.5" x2="247.5" y1="319.3047" y2="332.3047"/><line style="stroke:#181818;stroke-width:1.0;" x1="206.5" x2="247.5" y1="332.3047" y2="332.3047"/><polygon fill="#181818" points="216.5,328.3047,206.5,332.3047,216.5,336.3047,212.5,332.3047" style="stroke:#181818;stroke-width:1.0;"/><text fill="#000000" font-family="sans-serif" font-size="13" font-weight="bold" lengthAdjust="spacing" textLength="7" x="212.5" y="314.5498">6</text><text fill="#000000" font-family="sans-serif" font-size="13" lengthAdjust="spacing" textLength="178" x="223.5" y="314.5498">event = new event(Get,reviews)</text><polygon fill="#181818" points="908.5,356.8281,918.5,360.8281,908.5,364.8281,912.5,360.8281" style="stroke:#181818;stroke-width:1.0;"/><line style="stroke:#181818;stroke-width:1.0;" x1="205.5" x2="914.5" y1="360.8281" y2="360.8281"/><text fill="#000000" font-family="sans-serif" font-size="13" font-weight="bold" lengthAdjust="spacing" textLength="7" x="212.5" y="356.0732">7</text><text fill="#000000" font-family="sans-serif" font-size="13" lengthAdjust="spacing" textLength="119" x="223.5" y="356.0732">sendMessage(event)</text><polygon fill="#181818" points="51.5,415.3516,41.5,419.3516,51.5,423.3516,47.5,419.3516" style="stroke:#181818;stroke-width:1.0;"/><line style="stroke:#181818;stroke-width:1.0;stroke-dasharray:2.0,2.0;" x1="45.5" x2="199.5" y1="419.3516" y2="419.3516"/><text fill="#000000" font-family="sans-serif" font-size="13" font-weight="bold" lengthAdjust="spacing" textLength="7" x="57.5" y="414.5967">8</text><text fill="#000000" font-family="sans-serif" font-size="13" lengthAdjust="spacing" textLength="109" x="68.5" y="414.5967">Retorna as reviews</text><!--SRC=[ZLFBJiCm4BpxAwnUI2LA98wHog4FzTA8AYtStMGfLXFRs4xAvxDst52ZWDYJbPsPVKtktgrL9ajJLJDXswP-A6MJ6lXeGPGmgpWxQTOGmbehHTiSGHDMMgbfBYlGpBsOeI_xTK6EyfDE2kWuNCm6x8GefYqlkKBX8R6KmcfPrw0dZhWy5Dint1vqnqlm6DH-ZJ4xBQksj0KewH75UlSyfX817ad5B3io0r6NBhrQnEmSZ64dM6Xv3dtc-mqXRaewU_9DqunkrWUQwbufLI0gBavkERnZ5lh9A8Px8CbDWQI0ftFwnaMrwrbzEydKumS5FpSDuUaeuoP1bJ6-ISovdGwCQmnwVajq95p2QQyMsE1_PIDfNE1OleA_43VPgBNhgE5AELFANI6ZLgwit79Z4nttC-Z45F9BjH7KJTQltP_u-zJG0VfYJWLS-dU2rhaFjvmEQ7G9WWrkBpWeyU0VTtLU-b7JVUf5KCNRBAC5uCybc7DVA4Hk60xz1G00]--></g></svg>