<?xml version="1.0" encoding="us-ascii" standalone="no"?><svg xmlns="http://www.w3.org/2000/svg" xmlns:xlink="http://www.w3.org/1999/xlink" contentStyleType="text/css" height="841px" preserveAspectRatio="none" style="width:1711px;height:841px;background:#FFFFFF;" version="1.1" viewBox="0 0 1711 841" width="1711px" zoomAndPan="magnify"><defs/><g><rect fill="#DDDDDD" height="829.6563" style="stroke:#181818;stroke-width:0.5;" width="1546" x="159" y="6"/><text fill="#000000" font-family="sans-serif" font-size="13" font-weight="bold" lengthAdjust="spacing" textLength="80" x="892" y="17.7686">ReviewsPost</text><rect fill="#FFFFFF" height="622.3281" style="stroke:#181818;stroke-width:1.0;" width="10" x="218.5" y="116.6875"/><rect fill="#FFFFFF" height="465.2344" style="stroke:#181818;stroke-width:1.0;" width="10" x="484.5" y="145.2109"/><rect fill="#FFFFFF" height="87.0469" style="stroke:#181818;stroke-width:1.0;" width="10" x="812.5" y="260.7813"/><rect fill="#FFFFFF" height="58.5234" style="stroke:#181818;stroke-width:1.0;" width="10" x="922" y="173.7344"/><rect fill="#FFFFFF" height="58.5234" style="stroke:#181818;stroke-width:1.0;" width="10" x="1027" y="551.9219"/><rect fill="#FFFFFF" height="30" style="stroke:#181818;stroke-width:1.0;" width="10" x="1128.5" y="434.875"/><rect fill="#FFFFFF" height="30" style="stroke:#181818;stroke-width:1.0;" width="10" x="1222.5" y="376.3516"/><rect fill="#FFFFFF" height="58.5234" style="stroke:#181818;stroke-width:1.0;" width="10" x="1333" y="289.3047"/><rect fill="#FFFFFF" height="30" style="stroke:#181818;stroke-width:1.0;" width="10" x="1461" y="202.2578"/><rect fill="#FFFFFF" height="30" style="stroke:#181818;stroke-width:1.0;" width="10" x="1461" y="317.8281"/><rect fill="#FFFFFF" height="30" style="stroke:#181818;stroke-width:1.0;" width="10" x="1461" y="580.4453"/><rect fill="#FFFFFF" height="30" style="stroke:#181818;stroke-width:1.0;" width="10" x="1570.5" y="680.4922"/><rect fill="#FFFFFF" height="30" style="stroke:#181818;stroke-width:1.0;" width="10" x="1666.5" y="493.3984"/><line style="stroke:#181818;stroke-width:0.5;stroke-dasharray:5.0,5.0;" x1="42" x2="42" y1="86.1641" y2="757.0156"/><line style="stroke:#181818;stroke-width:0.5;stroke-dasharray:5.0,5.0;" x1="223" x2="223" y1="86.1641" y2="757.0156"/><line style="stroke:#181818;stroke-width:0.5;stroke-dasharray:5.0,5.0;" x1="489.5" x2="489.5" y1="86.1641" y2="757.0156"/><line style="stroke:#181818;stroke-width:0.5;stroke-dasharray:5.0,5.0;" x1="817.5" x2="817.5" y1="86.1641" y2="757.0156"/><line style="stroke:#181818;stroke-width:0.5;stroke-dasharray:5.0,5.0;" x1="926.5" x2="926.5" y1="86.1641" y2="757.0156"/><line style="stroke:#181818;stroke-width:0.5;stroke-dasharray:5.0,5.0;" x1="1031.5" x2="1031.5" y1="86.1641" y2="757.0156"/><line style="stroke:#181818;stroke-width:0.5;stroke-dasharray:5.0,5.0;" x1="1133.5" x2="1133.5" y1="86.1641" y2="757.0156"/><line style="stroke:#181818;stroke-width:0.5;stroke-dasharray:5.0,5.0;" x1="1227.5" x2="1227.5" y1="86.1641" y2="757.0156"/><line style="stroke:#181818;stroke-width:0.5;stroke-dasharray:5.0,5.0;" x1="1337.5" x2="1337.5" y1="86.1641" y2="757.0156"/><line style="stroke:#181818;stroke-width:0.5;stroke-dasharray:5.0,5.0;" x1="1466" x2="1466" y1="86.1641" y2="757.0156"/><line style="stroke:#181818;stroke-width:0.5;stroke-dasharray:5.0,5.0;" x1="1575" x2="1575" y1="86.1641" y2="757.0156"/><line style="stroke:#181818;stroke-width:0.5;stroke-dasharray:5.0,5.0;" x1="1671" x2="1671" y1="86.1641" y2="757.0156"/><text fill="#000000" font-family="sans-serif" font-size="14" lengthAdjust="spacing" textLength="69" x="5" y="83.1973">Registered</text><ellipse cx="42.5" cy="19.0234" fill="#E2E2F0" rx="8" ry="8" style="stroke:#181818;stroke-width:0.5;"/><path d="M42.5,27.0234 L42.5,54.0234 M29.5,35.0234 L55.5,35.0234 M42.5,54.0234 L29.5,69.0234 M42.5,54.0234 L55.5,69.0234 " fill="none" style="stroke:#181818;stroke-width:0.5;"/><text fill="#000000" font-family="sans-serif" font-size="14" lengthAdjust="spacing" textLength="69" x="5" y="768.6895">Registered</text><ellipse cx="42.5" cy="780.1563" fill="#E2E2F0" rx="8" ry="8" style="stroke:#181818;stroke-width:0.5;"/><path d="M42.5,788.1563 L42.5,815.1563 M29.5,796.1563 L55.5,796.1563 M42.5,815.1563 L29.5,830.1563 M42.5,815.1563 L55.5,830.1563 " fill="none" style="stroke:#181818;stroke-width:0.5;"/><rect fill="#E2E2F0" height="29.6406" rx="2.5" ry="2.5" style="stroke:#181818;stroke-width:0.5;" width="121" x="163" y="55.5234"/><text fill="#000000" font-family="sans-serif" font-size="14" lengthAdjust="spacing" textLength="107" x="170" y="75.1973">ReviewController</text><rect fill="#E2E2F0" height="29.6406" rx="2.5" ry="2.5" style="stroke:#181818;stroke-width:0.5;" width="121" x="163" y="756.0156"/><text fill="#000000" font-family="sans-serif" font-size="14" lengthAdjust="spacing" textLength="107" x="170" y="775.6895">ReviewController</text><rect fill="#E2E2F0" height="29.6406" rx="2.5" ry="2.5" style="stroke:#181818;stroke-width:0.5;" width="106" x="436.5" y="55.5234"/><text fill="#000000" font-family="sans-serif" font-size="14" lengthAdjust="spacing" textLength="92" x="443.5" y="75.1973">ReviewService</text><rect fill="#E2E2F0" height="29.6406" rx="2.5" ry="2.5" style="stroke:#181818;stroke-width:0.5;" width="106" x="436.5" y="756.0156"/><text fill="#000000" font-family="sans-serif" font-size="14" lengthAdjust="spacing" textLength="92" x="443.5" y="775.6895">ReviewService</text><rect fill="#E2E2F0" height="29.6406" rx="2.5" ry="2.5" style="stroke:#181818;stroke-width:0.5;" width="102" x="766.5" y="55.5234"/><text fill="#000000" font-family="sans-serif" font-size="14" lengthAdjust="spacing" textLength="88" x="773.5" y="75.1973">RatingService</text><rect fill="#E2E2F0" height="29.6406" rx="2.5" ry="2.5" style="stroke:#181818;stroke-width:0.5;" width="102" x="766.5" y="756.0156"/><text fill="#000000" font-family="sans-serif" font-size="14" lengthAdjust="spacing" textLength="88" x="773.5" y="775.6895">RatingService</text><rect fill="#E2E2F0" height="29.6406" rx="2.5" ry="2.5" style="stroke:#181818;stroke-width:0.5;" width="97" x="878.5" y="55.5234"/><text fill="#000000" font-family="sans-serif" font-size="14" lengthAdjust="spacing" textLength="83" x="885.5" y="75.1973">ProductRepo</text><rect fill="#E2E2F0" height="29.6406" rx="2.5" ry="2.5" style="stroke:#181818;stroke-width:0.5;" width="97" x="878.5" y="756.0156"/><text fill="#000000" font-family="sans-serif" font-size="14" lengthAdjust="spacing" textLength="83" x="885.5" y="775.6895">ProductRepo</text><rect fill="#E2E2F0" height="29.6406" rx="2.5" ry="2.5" style="stroke:#181818;stroke-width:0.5;" width="93" x="985.5" y="55.5234"/><text fill="#000000" font-family="sans-serif" font-size="14" lengthAdjust="spacing" textLength="79" x="992.5" y="75.1973">ReviewRepo</text><rect fill="#E2E2F0" height="29.6406" rx="2.5" ry="2.5" style="stroke:#181818;stroke-width:0.5;" width="93" x="985.5" y="756.0156"/><text fill="#000000" font-family="sans-serif" font-size="14" lengthAdjust="spacing" textLength="79" x="992.5" y="775.6895">ReviewRepo</text><rect fill="#E2E2F0" height="29.6406" rx="2.5" ry="2.5" style="stroke:#181818;stroke-width:0.5;" width="90" x="1088.5" y="55.5234"/><text fill="#000000" font-family="sans-serif" font-size="14" lengthAdjust="spacing" textLength="76" x="1095.5" y="75.1973">RestService</text><rect fill="#E2E2F0" height="29.6406" rx="2.5" ry="2.5" style="stroke:#181818;stroke-width:0.5;" width="90" x="1088.5" y="756.0156"/><text fill="#000000" font-family="sans-serif" font-size="14" lengthAdjust="spacing" textLength="76" x="1095.5" y="775.6895">RestService</text><rect fill="#E2E2F0" height="29.6406" rx="2.5" ry="2.5" style="stroke:#181818;stroke-width:0.5;" width="78" x="1188.5" y="55.5234"/><text fill="#000000" font-family="sans-serif" font-size="14" lengthAdjust="spacing" textLength="64" x="1195.5" y="75.1973">LocalDate</text><rect fill="#E2E2F0" height="29.6406" rx="2.5" ry="2.5" style="stroke:#181818;stroke-width:0.5;" width="78" x="1188.5" y="756.0156"/><text fill="#000000" font-family="sans-serif" font-size="14" lengthAdjust="spacing" textLength="64" x="1195.5" y="775.6895">LocalDate</text><rect fill="#E2E2F0" height="29.6406" rx="2.5" ry="2.5" style="stroke:#181818;stroke-width:0.5;" width="123" x="1276.5" y="55.5234"/><text fill="#000000" font-family="sans-serif" font-size="14" lengthAdjust="spacing" textLength="109" x="1283.5" y="75.1973">RatingRepository</text><rect fill="#E2E2F0" height="29.6406" rx="2.5" ry="2.5" style="stroke:#181818;stroke-width:0.5;" width="123" x="1276.5" y="756.0156"/><text fill="#000000" font-family="sans-serif" font-size="14" lengthAdjust="spacing" textLength="109" x="1283.5" y="775.6895">RatingRepository</text><text fill="#000000" font-family="sans-serif" font-size="14" lengthAdjust="spacing" textLength="80" x="1423" y="83.1973">ReviewsPost</text><path d="M1448,34.5234 C1448,24.5234 1466,24.5234 1466,24.5234 C1466,24.5234 1484,24.5234 1484,34.5234 L1484,60.5234 C1484,70.5234 1466,70.5234 1466,70.5234 C1466,70.5234 1448,70.5234 1448,60.5234 L1448,34.5234 " fill="#E2E2F0" style="stroke:#181818;stroke-width:1.5;"/><path d="M1448,34.5234 C1448,44.5234 1466,44.5234 1466,44.5234 C1466,44.5234 1484,44.5234 1484,34.5234 " fill="none" style="stroke:#181818;stroke-width:1.5;"/><text fill="#000000" font-family="sans-serif" font-size="14" lengthAdjust="spacing" textLength="80" x="1423" y="768.6895">ReviewsPost</text><path d="M1448,781.6563 C1448,771.6563 1466,771.6563 1466,771.6563 C1466,771.6563 1484,771.6563 1484,781.6563 L1484,807.6563 C1484,817.6563 1466,817.6563 1466,817.6563 C1466,817.6563 1448,817.6563 1448,807.6563 L1448,781.6563 " fill="#E2E2F0" style="stroke:#181818;stroke-width:1.5;"/><path d="M1448,781.6563 C1448,791.6563 1466,791.6563 1466,791.6563 C1466,791.6563 1484,791.6563 1484,781.6563 " fill="none" style="stroke:#181818;stroke-width:1.5;"/><rect fill="#E2E2F0" height="29.6406" rx="2.5" ry="2.5" style="stroke:#181818;stroke-width:0.5;" width="113" x="1519" y="55.5234"/><text fill="#000000" font-family="sans-serif" font-size="14" lengthAdjust="spacing" textLength="99" x="1526" y="75.1973">MessageBroker</text><rect fill="#E2E2F0" height="29.6406" rx="2.5" ry="2.5" style="stroke:#181818;stroke-width:0.5;" width="113" x="1519" y="756.0156"/><text fill="#000000" font-family="sans-serif" font-size="14" lengthAdjust="spacing" textLength="99" x="1526" y="775.6895">MessageBroker</text><rect fill="#E2E2F0" height="29.6406" rx="2.5" ry="2.5" style="stroke:#181818;stroke-width:0.5;" width="59" x="1642" y="55.5234"/><text fill="#000000" font-family="sans-serif" font-size="14" lengthAdjust="spacing" textLength="45" x="1649" y="75.1973">Review</text><rect fill="#E2E2F0" height="29.6406" rx="2.5" ry="2.5" style="stroke:#181818;stroke-width:0.5;" width="59" x="1642" y="756.0156"/><text fill="#000000" font-family="sans-serif" font-size="14" lengthAdjust="spacing" textLength="45" x="1649" y="775.6895">Review</text><rect fill="#FFFFFF" height="622.3281" style="stroke:#181818;stroke-width:1.0;" width="10" x="218.5" y="116.6875"/><rect fill="#FFFFFF" height="465.2344" style="stroke:#181818;stroke-width:1.0;" width="10" x="484.5" y="145.2109"/><rect fill="#FFFFFF" height="87.0469" style="stroke:#181818;stroke-width:1.0;" width="10" x="812.5" y="260.7813"/><rect fill="#FFFFFF" height="58.5234" style="stroke:#181818;stroke-width:1.0;" width="10" x="922" y="173.7344"/><rect fill="#FFFFFF" height="58.5234" style="stroke:#181818;stroke-width:1.0;" width="10" x="1027" y="551.9219"/><rect fill="#FFFFFF" height="30" style="stroke:#181818;stroke-width:1.0;" width="10" x="1128.5" y="434.875"/><rect fill="#FFFFFF" height="30" style="stroke:#181818;stroke-width:1.0;" width="10" x="1222.5" y="376.3516"/><rect fill="#FFFFFF" height="58.5234" style="stroke:#181818;stroke-width:1.0;" width="10" x="1333" y="289.3047"/><rect fill="#FFFFFF" height="30" style="stroke:#181818;stroke-width:1.0;" width="10" x="1461" y="202.2578"/><rect fill="#FFFFFF" height="30" style="stroke:#181818;stroke-width:1.0;" width="10" x="1461" y="317.8281"/><rect fill="#FFFFFF" height="30" style="stroke:#181818;stroke-width:1.0;" width="10" x="1461" y="580.4453"/><rect fill="#FFFFFF" height="30" style="stroke:#181818;stroke-width:1.0;" width="10" x="1570.5" y="680.4922"/><rect fill="#FFFFFF" height="30" style="stroke:#181818;stroke-width:1.0;" width="10" x="1666.5" y="493.3984"/><polygon fill="#181818" points="206.5,112.6875,216.5,116.6875,206.5,120.6875,210.5,116.6875" style="stroke:#181818;stroke-width:1.0;"/><line style="stroke:#181818;stroke-width:1.0;" x1="42.5" x2="212.5" y1="116.6875" y2="116.6875"/><text fill="#000000" font-family="sans-serif" font-size="13" font-weight="bold" lengthAdjust="spacing" textLength="7" x="49.5" y="111.9326">1</text><text fill="#000000" font-family="sans-serif" font-size="13" lengthAdjust="spacing" textLength="56" x="60.5" y="111.9326">Post /sku</text><polygon fill="#181818" points="472.5,141.2109,482.5,145.2109,472.5,149.2109,476.5,145.2109" style="stroke:#181818;stroke-width:1.0;"/><line style="stroke:#181818;stroke-width:1.0;" x1="228.5" x2="478.5" y1="145.2109" y2="145.2109"/><text fill="#000000" font-family="sans-serif" font-size="13" font-weight="bold" lengthAdjust="spacing" textLength="7" x="235.5" y="140.4561">2</text><text fill="#000000" font-family="sans-serif" font-size="13" lengthAdjust="spacing" textLength="226" x="246.5" y="140.4561">review = create(createReviewDTO, sku)</text><polygon fill="#181818" points="910,169.7344,920,173.7344,910,177.7344,914,173.7344" style="stroke:#181818;stroke-width:1.0;"/><line style="stroke:#181818;stroke-width:1.0;" x1="494.5" x2="916" y1="173.7344" y2="173.7344"/><text fill="#000000" font-family="sans-serif" font-size="13" font-weight="bold" lengthAdjust="spacing" textLength="7" x="501.5" y="168.9795">3</text><text fill="#000000" font-family="sans-serif" font-size="13" lengthAdjust="spacing" textLength="143" x="512.5" y="168.9795">product= findBySku(sku)</text><polygon fill="#181818" points="1449,198.2578,1459,202.2578,1449,206.2578,1453,202.2578" style="stroke:#181818;stroke-width:1.0;"/><line style="stroke:#181818;stroke-width:1.0;" x1="932" x2="1455" y1="202.2578" y2="202.2578"/><text fill="#000000" font-family="sans-serif" font-size="13" font-weight="bold" lengthAdjust="spacing" textLength="7" x="939" y="197.5029">4</text><text fill="#000000" font-family="sans-serif" font-size="13" lengthAdjust="spacing" textLength="88" x="950" y="197.5029">findBySku(sku)</text><polygon fill="#181818" points="800.5,256.7813,810.5,260.7813,800.5,264.7813,804.5,260.7813" style="stroke:#181818;stroke-width:1.0;"/><line style="stroke:#181818;stroke-width:1.0;" x1="494.5" x2="806.5" y1="260.7813" y2="260.7813"/><text fill="#000000" font-family="sans-serif" font-size="13" font-weight="bold" lengthAdjust="spacing" textLength="7" x="501.5" y="256.0264">5</text><text fill="#000000" font-family="sans-serif" font-size="13" lengthAdjust="spacing" textLength="288" x="512.5" y="256.0264">rating = findByRate(createReviewDTO.getRating())</text><polygon fill="#181818" points="1321,285.3047,1331,289.3047,1321,293.3047,1325,289.3047" style="stroke:#181818;stroke-width:1.0;"/><line style="stroke:#181818;stroke-width:1.0;" x1="822.5" x2="1327" y1="289.3047" y2="289.3047"/><text fill="#000000" font-family="sans-serif" font-size="13" font-weight="bold" lengthAdjust="spacing" textLength="7" x="829.5" y="284.5498">6</text><text fill="#000000" font-family="sans-serif" font-size="13" lengthAdjust="spacing" textLength="93" x="840.5" y="284.5498">findByRate(rate)</text><polygon fill="#181818" points="1449,313.8281,1459,317.8281,1449,321.8281,1453,317.8281" style="stroke:#181818;stroke-width:1.0;"/><line style="stroke:#181818;stroke-width:1.0;" x1="1343" x2="1455" y1="317.8281" y2="317.8281"/><text fill="#000000" font-family="sans-serif" font-size="13" font-weight="bold" lengthAdjust="spacing" textLength="7" x="1350" y="313.0732">7</text><text fill="#000000" font-family="sans-serif" font-size="13" lengthAdjust="spacing" textLength="88" x="1361" y="313.0732">findBySku(sku)</text><polygon fill="#181818" points="1210.5,372.3516,1220.5,376.3516,1210.5,380.3516,1214.5,376.3516" style="stroke:#181818;stroke-width:1.0;"/><line style="stroke:#181818;stroke-width:1.0;" x1="494.5" x2="1216.5" y1="376.3516" y2="376.3516"/><text fill="#000000" font-family="sans-serif" font-size="13" font-weight="bold" lengthAdjust="spacing" textLength="7" x="501.5" y="371.5967">8</text><text fill="#000000" font-family="sans-serif" font-size="13" lengthAdjust="spacing" textLength="64" x="512.5" y="371.5967">date=now()</text><polygon fill="#181818" points="1116.5,430.875,1126.5,434.875,1116.5,438.875,1120.5,434.875" style="stroke:#181818;stroke-width:1.0;"/><line style="stroke:#181818;stroke-width:1.0;" x1="494.5" x2="1122.5" y1="434.875" y2="434.875"/><text fill="#000000" font-family="sans-serif" font-size="13" font-weight="bold" lengthAdjust="spacing" textLength="7" x="501.5" y="430.1201">9</text><text fill="#000000" font-family="sans-serif" font-size="13" lengthAdjust="spacing" textLength="153" x="512.5" y="430.1201">funfact = getFunFact(date)</text><polygon fill="#181818" points="1654.5,489.3984,1664.5,493.3984,1654.5,497.3984,1658.5,493.3984" style="stroke:#181818;stroke-width:1.0;"/><line style="stroke:#181818;stroke-width:1.0;" x1="494.5" x2="1660.5" y1="493.3984" y2="493.3984"/><text fill="#000000" font-family="sans-serif" font-size="13" font-weight="bold" lengthAdjust="spacing" textLength="14" x="501.5" y="488.6436">10</text><text fill="#000000" font-family="sans-serif" font-size="13" lengthAdjust="spacing" textLength="645" x="519.5" y="488.6436">review = create(createReviewDTO.getReviewText(), date, product, funfact, rating,  createReviewDTO.getUserID())</text><polygon fill="#181818" points="1015,547.9219,1025,551.9219,1015,555.9219,1019,551.9219" style="stroke:#181818;stroke-width:1.0;"/><line style="stroke:#181818;stroke-width:1.0;" x1="494.5" x2="1021" y1="551.9219" y2="551.9219"/><text fill="#000000" font-family="sans-serif" font-size="13" font-weight="bold" lengthAdjust="spacing" textLength="14" x="501.5" y="547.167">11</text><text fill="#000000" font-family="sans-serif" font-size="13" lengthAdjust="spacing" textLength="69" x="519.5" y="547.167">save(review)</text><polygon fill="#181818" points="1449,576.4453,1459,580.4453,1449,584.4453,1453,580.4453" style="stroke:#181818;stroke-width:1.0;"/><line style="stroke:#181818;stroke-width:1.0;" x1="1037" x2="1455" y1="580.4453" y2="580.4453"/><text fill="#000000" font-family="sans-serif" font-size="13" font-weight="bold" lengthAdjust="spacing" textLength="14" x="1044" y="575.6904">12</text><text fill="#000000" font-family="sans-serif" font-size="13" lengthAdjust="spacing" textLength="34" x="1062" y="575.6904">save()</text><line style="stroke:#181818;stroke-width:1.0;" x1="228.5" x2="270.5" y1="638.9688" y2="638.9688"/><line style="stroke:#181818;stroke-width:1.0;" x1="270.5" x2="270.5" y1="638.9688" y2="651.9688"/><line style="stroke:#181818;stroke-width:1.0;" x1="229.5" x2="270.5" y1="651.9688" y2="651.9688"/><polygon fill="#181818" points="239.5,647.9688,229.5,651.9688,239.5,655.9688,235.5,651.9688" style="stroke:#181818;stroke-width:1.0;"/><text fill="#000000" font-family="sans-serif" font-size="13" font-weight="bold" lengthAdjust="spacing" textLength="14" x="235.5" y="634.2139">13</text><text fill="#000000" font-family="sans-serif" font-size="13" lengthAdjust="spacing" textLength="181" x="253.5" y="634.2139">event = new event(Post, review)</text><polygon fill="#181818" points="1558.5,676.4922,1568.5,680.4922,1558.5,684.4922,1562.5,680.4922" style="stroke:#181818;stroke-width:1.0;"/><line style="stroke:#181818;stroke-width:1.0;" x1="228.5" x2="1564.5" y1="680.4922" y2="680.4922"/><text fill="#000000" font-family="sans-serif" font-size="13" font-weight="bold" lengthAdjust="spacing" textLength="14" x="235.5" y="675.7373">14</text><text fill="#000000" font-family="sans-serif" font-size="13" lengthAdjust="spacing" textLength="119" x="253.5" y="675.7373">sendMessage(event)</text><polygon fill="#181818" points="53.5,735.0156,43.5,739.0156,53.5,743.0156,49.5,739.0156" style="stroke:#181818;stroke-width:1.0;"/><line style="stroke:#181818;stroke-width:1.0;stroke-dasharray:2.0,2.0;" x1="47.5" x2="222.5" y1="739.0156" y2="739.0156"/><text fill="#000000" font-family="sans-serif" font-size="13" font-weight="bold" lengthAdjust="spacing" textLength="14" x="59.5" y="734.2607">15</text><text fill="#000000" font-family="sans-serif" font-size="13" lengthAdjust="spacing" textLength="134" x="77.5" y="734.2607">Retorna a review criada</text><!--SRC=[bLLDR-8m4BtxLrXSDaXfaSWj4YijXQvMQbKKwDvDCcKjmCxQ3ct__OuTdCOXALjVI3BFRsRUVF3jZp6bJYUJyi24gOw7srmU9nh-LY1ok2ausobs98HLHehgk0L5M6waeXdik3QWeA1Cq-VrCYDR-KP76PmulEgLr6P4IgOCptc9rDvo9uLHyd00DR8NxpRPGnzi3Uh4St0OvFxTmJ33nQwBcOQWbP95bPiCIkaWsNBrrESg04ox26swRf8GyY1pTbWmKmCMFpRBlbYj4yrHkFV6LK8APjYMQGXLSpJpaEGHj6Oxc2kvFmltkFv92B6wqvllJaQQKdkVJlI-iaNY9mog5fZYiG-8j1aWKZc7T4Pp1GYBwfywZCNcAQP8CdRt6YPN1de-ZWRfR28fBMkfP_I5YsB-ljvNKNE_VHekLmlQSwp1yYxc6EGLje0H5Ukp5_0PecKD8lBPkQv2iLm9gKylwn7iTWUchdGq3YCDz9jUXE2-UYMJjEq2tS8L3PD14PElgFW_IdvPpJ2sbZ4Kmcjj9oUbE18m4_8r6X3HpTTGI6rRkuHMragy811hY8MwhyGzlaJ5XS11Z9yca5nuEW_nwFfqkMPnBnjuCz4uTcd7VenY7sryxhoOqXw6PmtgrsAmtNmuGqbSsDiZFSKaD3jX3phGW8jwOVPrtxJfFiSoq7LNMswutpgzLaVHAH5nM_5ZEy89XEq0WQLnpv7Tbp7rENeuhbORE8ZYl7OZX-wiGxk0Eqxjfve4MTngJl5_4fU-O9JvfiWLPmKZhMlsoZy0]--></g></svg>