<?xml version="1.0" encoding="us-ascii" standalone="no"?><svg xmlns="http://www.w3.org/2000/svg" xmlns:xlink="http://www.w3.org/1999/xlink" contentStyleType="text/css" height="550px" preserveAspectRatio="none" style="width:957px;height:550px;background:#FFFFFF;" version="1.1" viewBox="0 0 957 550" width="957px" zoomAndPan="magnify"><defs/><g><rect fill="#DDDDDD" height="538.5156" style="stroke:#181818;stroke-width:0.5;" width="779.5" x="172" y="6"/><text fill="#000000" font-family="sans-serif" font-size="13" font-weight="bold" lengthAdjust="spacing" textLength="80" x="521.75" y="17.7686">ReviewsPost</text><rect fill="#FFFFFF" height="331.1875" style="stroke:#181818;stroke-width:1.0;" width="10" x="231.5" y="116.6875"/><rect fill="#FFFFFF" height="174.0938" style="stroke:#181818;stroke-width:1.0;" width="10" x="447.5" y="145.2109"/><rect fill="#FFFFFF" height="58.5234" style="stroke:#181818;stroke-width:1.0;" width="10" x="635.5" y="173.7344"/><rect fill="#FFFFFF" height="58.5234" style="stroke:#181818;stroke-width:1.0;" width="10" x="635.5" y="260.7813"/><rect fill="#FFFFFF" height="30" style="stroke:#181818;stroke-width:1.0;" width="10" x="776.5" y="202.2578"/><rect fill="#FFFFFF" height="30" style="stroke:#181818;stroke-width:1.0;" width="10" x="776.5" y="289.3047"/><rect fill="#FFFFFF" height="30" style="stroke:#181818;stroke-width:1.0;" width="10" x="886" y="389.3516"/><line style="stroke:#181818;stroke-width:0.5;stroke-dasharray:5.0,5.0;" x1="42" x2="42" y1="86.1641" y2="465.875"/><line style="stroke:#181818;stroke-width:0.5;stroke-dasharray:5.0,5.0;" x1="236" x2="236" y1="86.1641" y2="465.875"/><line style="stroke:#181818;stroke-width:0.5;stroke-dasharray:5.0,5.0;" x1="452.5" x2="452.5" y1="86.1641" y2="465.875"/><line style="stroke:#181818;stroke-width:0.5;stroke-dasharray:5.0,5.0;" x1="640" x2="640" y1="86.1641" y2="465.875"/><line style="stroke:#181818;stroke-width:0.5;stroke-dasharray:5.0,5.0;" x1="781.5" x2="781.5" y1="86.1641" y2="465.875"/><line style="stroke:#181818;stroke-width:0.5;stroke-dasharray:5.0,5.0;" x1="890.5" x2="890.5" y1="86.1641" y2="465.875"/><text fill="#000000" font-family="sans-serif" font-size="14" lengthAdjust="spacing" textLength="69" x="5" y="83.1973">Registered</text><ellipse cx="42.5" cy="19.0234" fill="#E2E2F0" rx="8" ry="8" style="stroke:#181818;stroke-width:0.5;"/><path d="M42.5,27.0234 L42.5,54.0234 M29.5,35.0234 L55.5,35.0234 M42.5,54.0234 L29.5,69.0234 M42.5,54.0234 L55.5,69.0234 " fill="none" style="stroke:#181818;stroke-width:0.5;"/><text fill="#000000" font-family="sans-serif" font-size="14" lengthAdjust="spacing" textLength="69" x="5" y="477.5488">Registered</text><ellipse cx="42.5" cy="489.0156" fill="#E2E2F0" rx="8" ry="8" style="stroke:#181818;stroke-width:0.5;"/><path d="M42.5,497.0156 L42.5,524.0156 M29.5,505.0156 L55.5,505.0156 M42.5,524.0156 L29.5,539.0156 M42.5,524.0156 L55.5,539.0156 " fill="none" style="stroke:#181818;stroke-width:0.5;"/><rect fill="#E2E2F0" height="29.6406" rx="2.5" ry="2.5" style="stroke:#181818;stroke-width:0.5;" width="121" x="176" y="55.5234"/><text fill="#000000" font-family="sans-serif" font-size="14" lengthAdjust="spacing" textLength="107" x="183" y="75.1973">ReviewController</text><rect fill="#E2E2F0" height="29.6406" rx="2.5" ry="2.5" style="stroke:#181818;stroke-width:0.5;" width="121" x="176" y="464.875"/><text fill="#000000" font-family="sans-serif" font-size="14" lengthAdjust="spacing" textLength="107" x="183" y="484.5488">ReviewController</text><rect fill="#E2E2F0" height="29.6406" rx="2.5" ry="2.5" style="stroke:#181818;stroke-width:0.5;" width="106" x="399.5" y="55.5234"/><text fill="#000000" font-family="sans-serif" font-size="14" lengthAdjust="spacing" textLength="92" x="406.5" y="75.1973">ReviewService</text><rect fill="#E2E2F0" height="29.6406" rx="2.5" ry="2.5" style="stroke:#181818;stroke-width:0.5;" width="106" x="399.5" y="464.875"/><text fill="#000000" font-family="sans-serif" font-size="14" lengthAdjust="spacing" textLength="92" x="406.5" y="484.5488">ReviewService</text><rect fill="#E2E2F0" height="29.6406" rx="2.5" ry="2.5" style="stroke:#181818;stroke-width:0.5;" width="93" x="594" y="55.5234"/><text fill="#000000" font-family="sans-serif" font-size="14" lengthAdjust="spacing" textLength="79" x="601" y="75.1973">ReviewRepo</text><rect fill="#E2E2F0" height="29.6406" rx="2.5" ry="2.5" style="stroke:#181818;stroke-width:0.5;" width="93" x="594" y="464.875"/><text fill="#000000" font-family="sans-serif" font-size="14" lengthAdjust="spacing" textLength="79" x="601" y="484.5488">ReviewRepo</text><text fill="#000000" font-family="sans-serif" font-size="14" lengthAdjust="spacing" textLength="80" x="738.5" y="83.1973">ReviewsPost</text><path d="M763.5,34.5234 C763.5,24.5234 781.5,24.5234 781.5,24.5234 C781.5,24.5234 799.5,24.5234 799.5,34.5234 L799.5,60.5234 C799.5,70.5234 781.5,70.5234 781.5,70.5234 C781.5,70.5234 763.5,70.5234 763.5,60.5234 L763.5,34.5234 " fill="#E2E2F0" style="stroke:#181818;stroke-width:1.5;"/><path d="M763.5,34.5234 C763.5,44.5234 781.5,44.5234 781.5,44.5234 C781.5,44.5234 799.5,44.5234 799.5,34.5234 " fill="none" style="stroke:#181818;stroke-width:1.5;"/><text fill="#000000" font-family="sans-serif" font-size="14" lengthAdjust="spacing" textLength="80" x="738.5" y="477.5488">ReviewsPost</text><path d="M763.5,490.5156 C763.5,480.5156 781.5,480.5156 781.5,480.5156 C781.5,480.5156 799.5,480.5156 799.5,490.5156 L799.5,516.5156 C799.5,526.5156 781.5,526.5156 781.5,526.5156 C781.5,526.5156 763.5,526.5156 763.5,516.5156 L763.5,490.5156 " fill="#E2E2F0" style="stroke:#181818;stroke-width:1.5;"/><path d="M763.5,490.5156 C763.5,500.5156 781.5,500.5156 781.5,500.5156 C781.5,500.5156 799.5,500.5156 799.5,490.5156 " fill="none" style="stroke:#181818;stroke-width:1.5;"/><rect fill="#E2E2F0" height="29.6406" rx="2.5" ry="2.5" style="stroke:#181818;stroke-width:0.5;" width="113" x="834.5" y="55.5234"/><text fill="#000000" font-family="sans-serif" font-size="14" lengthAdjust="spacing" textLength="99" x="841.5" y="75.1973">MessageBroker</text><rect fill="#E2E2F0" height="29.6406" rx="2.5" ry="2.5" style="stroke:#181818;stroke-width:0.5;" width="113" x="834.5" y="464.875"/><text fill="#000000" font-family="sans-serif" font-size="14" lengthAdjust="spacing" textLength="99" x="841.5" y="484.5488">MessageBroker</text><rect fill="#FFFFFF" height="331.1875" style="stroke:#181818;stroke-width:1.0;" width="10" x="231.5" y="116.6875"/><rect fill="#FFFFFF" height="174.0938" style="stroke:#181818;stroke-width:1.0;" width="10" x="447.5" y="145.2109"/><rect fill="#FFFFFF" height="58.5234" style="stroke:#181818;stroke-width:1.0;" width="10" x="635.5" y="173.7344"/><rect fill="#FFFFFF" height="58.5234" style="stroke:#181818;stroke-width:1.0;" width="10" x="635.5" y="260.7813"/><rect fill="#FFFFFF" height="30" style="stroke:#181818;stroke-width:1.0;" width="10" x="776.5" y="202.2578"/><rect fill="#FFFFFF" height="30" style="stroke:#181818;stroke-width:1.0;" width="10" x="776.5" y="289.3047"/><rect fill="#FFFFFF" height="30" style="stroke:#181818;stroke-width:1.0;" width="10" x="886" y="389.3516"/><polygon fill="#181818" points="219.5,112.6875,229.5,116.6875,219.5,120.6875,223.5,116.6875" style="stroke:#181818;stroke-width:1.0;"/><line style="stroke:#181818;stroke-width:1.0;" x1="42.5" x2="225.5" y1="116.6875" y2="116.6875"/><text fill="#000000" font-family="sans-serif" font-size="13" font-weight="bold" lengthAdjust="spacing" textLength="7" x="49.5" y="111.9326">1</text><text fill="#000000" font-family="sans-serif" font-size="13" lengthAdjust="spacing" textLength="159" x="60.5" y="111.9326">DELETE /reviews/{reviewID}</text><polygon fill="#181818" points="435.5,141.2109,445.5,145.2109,435.5,149.2109,439.5,145.2109" style="stroke:#181818;stroke-width:1.0;"/><line style="stroke:#181818;stroke-width:1.0;" x1="241.5" x2="441.5" y1="145.2109" y2="145.2109"/><text fill="#000000" font-family="sans-serif" font-size="13" font-weight="bold" lengthAdjust="spacing" textLength="7" x="248.5" y="140.4561">2</text><text fill="#000000" font-family="sans-serif" font-size="13" lengthAdjust="spacing" textLength="130" x="259.5" y="140.4561">deleteReview(reviewID)</text><polygon fill="#181818" points="623.5,169.7344,633.5,173.7344,623.5,177.7344,627.5,173.7344" style="stroke:#181818;stroke-width:1.0;"/><line style="stroke:#181818;stroke-width:1.0;" x1="457.5" x2="629.5" y1="173.7344" y2="173.7344"/><text fill="#000000" font-family="sans-serif" font-size="13" font-weight="bold" lengthAdjust="spacing" textLength="7" x="464.5" y="168.9795">3</text><text fill="#000000" font-family="sans-serif" font-size="13" lengthAdjust="spacing" textLength="148" x="475.5" y="168.9795">review= findById(reviewID)</text><polygon fill="#181818" points="764.5,198.2578,774.5,202.2578,764.5,206.2578,768.5,202.2578" style="stroke:#181818;stroke-width:1.0;"/><line style="stroke:#181818;stroke-width:1.0;" x1="645.5" x2="770.5" y1="202.2578" y2="202.2578"/><text fill="#000000" font-family="sans-serif" font-size="13" font-weight="bold" lengthAdjust="spacing" textLength="7" x="652.5" y="197.5029">4</text><text fill="#000000" font-family="sans-serif" font-size="13" lengthAdjust="spacing" textLength="101" x="663.5" y="197.5029">findById(reviewID)</text><polygon fill="#181818" points="623.5,256.7813,633.5,260.7813,623.5,264.7813,627.5,260.7813" style="stroke:#181818;stroke-width:1.0;"/><line style="stroke:#181818;stroke-width:1.0;" x1="457.5" x2="629.5" y1="260.7813" y2="260.7813"/><text fill="#000000" font-family="sans-serif" font-size="13" font-weight="bold" lengthAdjust="spacing" textLength="7" x="464.5" y="256.0264">5</text><text fill="#000000" font-family="sans-serif" font-size="13" lengthAdjust="spacing" textLength="78" x="475.5" y="256.0264">delete(review)</text><polygon fill="#181818" points="764.5,285.3047,774.5,289.3047,764.5,293.3047,768.5,289.3047" style="stroke:#181818;stroke-width:1.0;"/><line style="stroke:#181818;stroke-width:1.0;" x1="645.5" x2="770.5" y1="289.3047" y2="289.3047"/><text fill="#000000" font-family="sans-serif" font-size="13" font-weight="bold" lengthAdjust="spacing" textLength="7" x="652.5" y="284.5498">6</text><text fill="#000000" font-family="sans-serif" font-size="13" lengthAdjust="spacing" textLength="78" x="663.5" y="284.5498">delete(review)</text><line style="stroke:#181818;stroke-width:1.0;" x1="241.5" x2="283.5" y1="347.8281" y2="347.8281"/><line style="stroke:#181818;stroke-width:1.0;" x1="283.5" x2="283.5" y1="347.8281" y2="360.8281"/><line style="stroke:#181818;stroke-width:1.0;" x1="242.5" x2="283.5" y1="360.8281" y2="360.8281"/><polygon fill="#181818" points="252.5,356.8281,242.5,360.8281,252.5,364.8281,248.5,360.8281" style="stroke:#181818;stroke-width:1.0;"/><text fill="#000000" font-family="sans-serif" font-size="13" font-weight="bold" lengthAdjust="spacing" textLength="7" x="248.5" y="343.0732">7</text><text fill="#000000" font-family="sans-serif" font-size="13" lengthAdjust="spacing" textLength="181" x="259.5" y="343.0732">event = new event(Post, review)</text><polygon fill="#181818" points="874,385.3516,884,389.3516,874,393.3516,878,389.3516" style="stroke:#181818;stroke-width:1.0;"/><line style="stroke:#181818;stroke-width:1.0;" x1="241.5" x2="880" y1="389.3516" y2="389.3516"/><text fill="#000000" font-family="sans-serif" font-size="13" font-weight="bold" lengthAdjust="spacing" textLength="7" x="248.5" y="384.5967">8</text><text fill="#000000" font-family="sans-serif" font-size="13" lengthAdjust="spacing" textLength="119" x="259.5" y="384.5967">sendMessage(event)</text><polygon fill="#181818" points="53.5,443.875,43.5,447.875,53.5,451.875,49.5,447.875" style="stroke:#181818;stroke-width:1.0;"/><line style="stroke:#181818;stroke-width:1.0;stroke-dasharray:2.0,2.0;" x1="47.5" x2="235.5" y1="447.875" y2="447.875"/><text fill="#000000" font-family="sans-serif" font-size="13" font-weight="bold" lengthAdjust="spacing" textLength="7" x="59.5" y="443.1201">9</text><text fill="#000000" font-family="sans-serif" font-size="13" lengthAdjust="spacing" textLength="111" x="70.5" y="443.1201">Confirma a dele&#231;&#227;o</text><!--SRC=[hLHDJuD04BtpAoQzM1ChTv9wG8XfqiQ6LkzRcDQDmEBkGZN6N-F17z8_vdv0fRKqc3YdpSvxRsOUErmyILa8ptMBbEIopDBhc6Mkm9SIynX72IKRJZB78QLaUPcja3iaben3X1ig979CW0XuM8HHTsB5Nc4GOKLnA-PCo85J42vfJ0jLiydSibnobgR81vfukuocfs0Bv1MDqM2KzkCfJ8G5Cu0edDyx2P5aHGGUjg3JWN_8dg4GP8C-Pyzr5xF5dUFe6M1qOre23u9m6Yv3SBbLSz_jOH9yQ0TeHIJQxa65FYYgxbHH4qnHecrZsD0k3N1FDKD17OQd-7eG3onZ36kQ9_xR93cIQCTUpbW09q8dj7JWgyPwA7R5lf9oioydmNEiLhQp-tEuGzEiv_LWtMFrA_dBk9xg_sbUFnF_QkOvVElEl4wp23yBWHMgxHb3Zbjx7keDkuB6b0QkbacX1UP9lMX3Wpvw_thbZehgAokYLCmsUg1-5slACmB4V8FTr-wJEIsEndy3]--></g></svg>